<svg version="1.2" xmlns="http://www.w3.org/2000/svg" viewBox="0 0 3000 1800" width="3000" height="1800">
	<defs>
		<clipPath clipPathUnits="userSpaceOnUse" id="cp1">
			<path d="m0.34 1799.62v-1800h3000v1800z"/>
		</clipPath>
		<linearGradient id="g1" x2="1" gradientUnits="userSpaceOnUse" gradientTransform="matrix(3000,-1800,1588.235,2647.059,.34,1799.62)">
			<stop offset="0" stop-color="#bedbed"/>
			<stop offset="1" stop-color="#418ab7"/>
		</linearGradient>
		<clipPath clipPathUnits="userSpaceOnUse" id="cp2">
			<path d="m0.34 1799.62v-1800h3000v1800z"/>
		</clipPath>
	</defs>
	<style>
		.s0 { fill: url(#g1) } 
		.s1 { fill: #ffffff } 
	</style>
	<g id="_Artboards_">
	</g>
	<g id="Objects">
		<g id="&lt;Group&gt;">
			<g id="&lt;Clip Group&gt;" clip-path="url(#cp1)">
				<path id="&lt;Mesh&gt;" class="s0" d="m3000.34-0.38q0 900 0 1800c-2369.12 0-2273.82 0-3000 0q0-900 0-1800c726.18 0 630.88 0 3000 0z"/>
			</g>
		</g>
		<g id="&lt;Clip Group&gt;">
			<g id="&lt;Group&gt;" clip-path="url(#cp2)">
			</g>
			<g id="&lt;Group&gt;">
				<g id="&lt;Group&gt;" style="opacity: .21;mix-blend-mode: overlay">
					<g id="&lt;Group&gt;">
						<path id="&lt;Path&gt;" class="s1" d="m-478.09 584.42c0.06 0.59 0.12 1.18 0.18 1.66 0.54 4.77 2 12.48 4.61 21.8 9.15 32.63 32.48 85.22 80.33 102.37 40.26 14.42 75.11-4.41 86.79-11.57 2.62 16.37 13.67 75.27 56.64 114.48 44.79 40.88 106.68 44.32 159.79 9.74 5.86 11.11 63.4 116.21 168.69 121.65 77.54 4.01 151.4-47.56 192.27-133.7 9.7 5.28 49.58 25.34 95.02 4.63 63.59-28.99 80.78-111.71 82.13-118.65 7.6 6.33 35.96 28.27 72.27 20.36 30.72-6.7 49.32-30.89 58.47-42.79 19.62-25.53 28.04-53.51 31.75-70.29 8.07 23.72 22.21 52.74 46.9 75.26 44.79 40.88 106.68 44.32 159.78 9.74 5.86 11.11 63.4 116.21 168.7 121.65 77.54 4.01 151.39-47.56 192.27-133.7 9.7 5.28 49.58 25.34 95.01 4.63 63.59-28.99 80.79-111.71 82.13-118.65 7.6 6.33 35.97 28.27 72.27 20.36 30.73-6.7 49.32-30.89 58.47-42.79 16.52-21.49 25.09-44.7 29.61-61.52 10.05 32.76 33.36 81.07 78.85 97.37 40.26 14.43 75.1-4.41 86.79-11.56 2.61 16.36 13.67 75.26 56.64 114.47 44.79 40.88 106.68 44.32 159.79 9.74 5.86 11.11 63.4 116.21 168.69 121.65 77.54 4.01 151.39-47.56 192.27-133.7 9.7 5.28 49.58 25.34 95.02 4.63 63.58-28.99 80.78-111.71 82.12-118.65 7.61 6.33 35.97 28.27 72.27 20.36 30.73-6.7 49.33-30.89 58.47-42.79 13.9-18.08 22.18-37.39 27.14-53.08 7.66 33.57 25.44 77.34 63.59 99.55 38.02 22.13 74.74 10.34 87.16 5.56 0.59 16.68 4.31 77.04 41.97 124.19 39.26 49.15 99.98 64.67 156.68 40.91 4.43 12.11 48.43 127.21 151.8 153.2 76.11 19.14 155.38-17.34 206.29-94.45 8.94 7.12 45.89 34.74 93.31 23.17 66.36-16.19 93.46-94.55 95.64-101.14 6.73 7.74 32.07 34.97 68.91 34.26 31.17-0.6 52.5-20.86 62.99-30.82 19.72-18.73 31.16-40.98 37.54-56.88 19.99-46.49 92.23-226.69 54.07-320.07-52.2-127.73-10.2-261.05-24.03-392.08-5.36-50.85-10.52-92.68-14.14-120.78q-2163.98 26.02-4327.96 52.03 64.6 230.42 129.19 460.83z"/>
					</g>
				</g>
				<g id="&lt;Group&gt;" style="opacity: .38;mix-blend-mode: overlay">
					<g id="&lt;Group&gt;">
						<path id="&lt;Path&gt;" class="s1" d="m-977.25 454.35c0.06 0.59 0.13 1.17 0.18 1.66 0.54 4.77 2.01 12.47 4.62 21.79 9.15 32.64 32.47 85.23 80.32 102.38 40.27 14.42 75.11-4.42 86.8-11.57 2.61 16.36 13.66 75.26 56.64 114.48 44.79 40.87 106.68 44.32 159.78 9.74 5.86 11.1 63.4 116.2 168.7 121.65 77.54 4 151.39-47.56 192.27-133.7 9.7 5.28 49.58 25.33 95.01 4.62 63.59-28.98 80.79-111.71 82.13-118.65 7.6 6.33 35.97 28.27 72.27 20.36 30.73-6.69 49.32-30.88 58.47-42.78 19.63-25.53 28.05-53.51 31.76-70.29 8.07 23.72 22.21 52.73 46.89 75.26 44.8 40.87 106.68 44.32 159.79 9.74 5.86 11.11 63.4 116.2 168.69 121.65 77.54 4 151.4-47.56 192.28-133.7 9.69 5.28 49.57 25.33 95.01 4.62 63.59-28.98 80.78-111.71 82.13-118.65 7.6 6.34 35.96 28.27 72.27 20.36 30.72-6.69 49.32-30.88 58.47-42.78 16.52-21.49 25.09-44.7 29.6-61.53 10.06 32.77 33.37 81.08 78.85 97.38 40.26 14.42 75.11-4.42 86.79-11.57 2.62 16.36 13.67 75.27 56.65 114.48 44.79 40.87 106.67 44.32 159.78 9.74 5.86 11.11 63.4 116.2 168.7 121.65 77.53 4 151.39-47.56 192.27-133.7 9.7 5.28 49.58 25.33 95.01 4.62 63.59-28.98 80.79-111.71 82.13-118.65 7.6 6.34 35.97 28.27 72.27 20.36 30.72-6.69 49.32-30.88 58.47-42.78 13.9-18.08 22.17-37.39 27.14-53.08 7.65 33.57 25.44 77.33 63.59 99.54 38.01 22.14 74.74 10.35 87.16 5.57 0.58 16.68 4.3 77.03 41.97 124.19 39.26 49.15 99.98 64.67 156.67 40.9 4.43 12.12 48.44 127.22 151.8 153.21 76.12 19.14 155.39-17.35 206.3-94.45 8.93 7.12 45.88 34.74 93.3 23.17 66.37-16.19 93.47-94.55 95.64-101.14 6.74 7.74 32.08 34.97 68.91 34.26 31.18-0.6 52.51-20.86 63-30.82 19.72-18.73 31.16-40.99 37.53-56.88 19.99-46.49 92.23-226.69 54.08-320.07-44.05-107.78-24.03-392.08-24.03-392.08l-3913.42 157.95-299.49 234.13z"/>
					</g>
				</g>
				<g id="&lt;Group&gt;" style="opacity: .7">
					<g id="&lt;Group&gt;" style="opacity: .68;mix-blend-mode: overlay">
						<g id="&lt;Group&gt;">
							<path id="&lt;Path&gt;" class="s1" d="m3360.54 456.84c6.39 90.57 24.85 222.64-59.63 300.86-59.44 55.04-153.89 68.65-222.54 47.57-128.68-39.52-218.85-216.94-172.71-428.06-1.96 14.6-9 50.89-39.85 82.44-21.67 22.16-45.19 31.86-53.15 34.88-26.75 10.15-50.35 10.3-63.1 9.51-12.27 0.81-34.88 0.7-59.79-9.51q0 0 0 0c0 0-23.07-7.66-43.68-29.67-15.03-16.05-37.26-71.21-36.11-147.89-8.63 6.21-110.44 77.04-207.04 28.43-59.63-30.01-121.26-107.54-105.65-163 2.57-9.14 6.79-16.08 10.26-20.8-1.91 5.7-4.76 13.4-8.81 22.2-2.39 5.18-10.47 22.19-24.74 41.04-6.19 8.16-32.46 41.17-79.06 65.97-33.86 18.03-69.68 25.96-109.69 24.76-32.91-0.99-73.15-1.77-110.08-27.32-46.27-32.01-54.52-79.87-78.69-75.92-10.22 1.67-14.7 11.2-30.65 34.59-21.24 31.16-41.37 55.45-56.97 72.88-32.24 21.48-55.02 37.91-84.49 46.97q0 0 0 0c0 0-31.18 12.25-69.99 7.73-28.41-3.31-106.83-55.3-174.84-162.17-68.69 53.43-126.45 81.15-148.46 86.72-33 8.35-60.04 3.49-60.04 3.49q0 0 0 0c0 0-31.37-2.95-58.98-14.91-44.73-19.39-85.09-76.66-99.95-151.4-0.12 8.85-3.07 110.39-77.82 153.43-33.12 19.07-72.86 22.36-83 23.11 0 0-40.29 2.88-79.66-8.62-58.95-17.21-81.34-91.52-111.46-85.48-35.24 7.08-16.16 111.18-79.28 183.91-48.33 55.69-117.99 62.01-133.42 63.41-106.68 9.69-218.98-76.21-277.64-215.61-7.12 15.28-43.09 88.51-124.24 117.32-106.7 37.88-195.47-35.14-202.61-41.22-5.33 99.95-65.58 186.49-151.49 218.17-79.2 29.2-167.95 7.27-229.29-56.46-26.38 80.39-56.11 135.32-69.31 152.86-20.02 26.6-42.15 42.14-42.15 42.14q-0.01 0-0.01 0c-12.2 8.88-25.77 16.25-42.13 23.03-34.09 14.13-67.82 15.69-102.19-0.23-50.56-23.41-82.21-66.6-101.71-115.63-38.37-270.13-30.49-539.5-33.01-811.78 973.11 97.92 3428.29 163.09 4292.72 4.39-103.29 291.82-114.97 516.62-103.87 673.87z"/>
						</g>
					</g>
				</g>
			</g>
			<g id="&lt;Group&gt;">
				<g id="&lt;Group&gt;" style="opacity: .21;mix-blend-mode: overlay">
					<g id="&lt;Group&gt;">
						<path id="&lt;Path&gt;" class="s1" d="m-478.09 584.42c0.06 0.59 0.12 1.18 0.18 1.66 0.54 4.77 2 12.48 4.61 21.8 9.15 32.63 32.48 85.22 80.33 102.37 40.26 14.42 75.11-4.41 86.79-11.57 2.62 16.37 13.67 75.27 56.64 114.48 44.79 40.88 106.68 44.32 159.79 9.74 5.86 11.11 63.4 116.21 168.69 121.65 77.54 4.01 151.4-47.56 192.27-133.7 9.7 5.28 49.58 25.34 95.02 4.63 63.59-28.99 80.78-111.71 82.13-118.65 7.6 6.33 35.96 28.27 72.27 20.36 30.72-6.7 49.32-30.89 58.47-42.79 19.62-25.53 28.04-53.51 31.75-70.29 8.07 23.72 22.21 52.74 46.9 75.26 44.79 40.88 106.68 44.32 159.78 9.74 5.86 11.11 63.4 116.21 168.7 121.65 77.54 4.01 151.39-47.56 192.27-133.7 9.7 5.28 49.58 25.34 95.01 4.63 63.59-28.99 80.79-111.71 82.13-118.65 7.6 6.33 35.97 28.27 72.27 20.36 30.73-6.7 49.32-30.89 58.47-42.79 16.52-21.49 25.09-44.7 29.61-61.52 10.05 32.76 33.36 81.07 78.85 97.37 40.26 14.43 75.1-4.41 86.79-11.56 2.61 16.36 13.67 75.26 56.64 114.47 44.79 40.88 106.68 44.32 159.79 9.74 5.86 11.11 63.4 116.21 168.69 121.65 77.54 4.01 151.39-47.56 192.27-133.7 9.7 5.28 49.58 25.34 95.02 4.63 63.58-28.99 80.78-111.71 82.12-118.65 7.61 6.33 35.97 28.27 72.27 20.36 30.73-6.7 49.33-30.89 58.47-42.79 13.9-18.08 22.18-37.39 27.14-53.08 7.66 33.57 25.44 77.34 63.59 99.55 38.02 22.13 74.74 10.34 87.16 5.56 0.59 16.68 4.31 77.04 41.97 124.19 39.26 49.15 99.98 64.67 156.68 40.91 4.43 12.11 48.43 127.21 151.8 153.2 76.11 19.14 155.38-17.34 206.29-94.45 8.94 7.12 45.89 34.74 93.31 23.17 66.36-16.19 93.46-94.55 95.64-101.14 6.73 7.74 32.07 34.97 68.91 34.26 31.17-0.6 52.5-20.86 62.99-30.82 19.72-18.73 31.16-40.98 37.54-56.88 19.99-46.49 92.23-226.69 54.07-320.07-52.2-127.73-10.2-261.05-24.03-392.08-5.36-50.85-10.52-92.68-14.14-120.78q-2163.98 26.02-4327.96 52.03 64.6 230.42 129.19 460.83z"/>
					</g>
				</g>
				<g id="&lt;Group&gt;" style="opacity: .38;mix-blend-mode: overlay">
					<g id="&lt;Group&gt;">
						<path id="&lt;Path&gt;" class="s1" d="m-977.25 454.35c0.06 0.59 0.13 1.17 0.18 1.66 0.54 4.77 2.01 12.47 4.62 21.79 9.15 32.64 32.47 85.23 80.32 102.38 40.27 14.42 75.11-4.42 86.8-11.57 2.61 16.36 13.66 75.26 56.64 114.48 44.79 40.87 106.68 44.32 159.78 9.74 5.86 11.1 63.4 116.2 168.7 121.65 77.54 4 151.39-47.56 192.27-133.7 9.7 5.28 49.58 25.33 95.01 4.62 63.59-28.98 80.79-111.71 82.13-118.65 7.6 6.33 35.97 28.27 72.27 20.36 30.73-6.69 49.32-30.88 58.47-42.78 19.63-25.53 28.05-53.51 31.76-70.29 8.07 23.72 22.21 52.73 46.89 75.26 44.8 40.87 106.68 44.32 159.79 9.74 5.86 11.11 63.4 116.2 168.69 121.65 77.54 4 151.4-47.56 192.28-133.7 9.69 5.28 49.57 25.33 95.01 4.62 63.59-28.98 80.78-111.71 82.13-118.65 7.6 6.34 35.96 28.27 72.27 20.36 30.72-6.69 49.32-30.88 58.47-42.78 16.52-21.49 25.09-44.7 29.6-61.53 10.06 32.77 33.37 81.08 78.85 97.38 40.26 14.42 75.11-4.42 86.79-11.57 2.62 16.36 13.67 75.27 56.65 114.48 44.79 40.87 106.67 44.32 159.78 9.74 5.86 11.11 63.4 116.2 168.7 121.65 77.53 4 151.39-47.56 192.27-133.7 9.7 5.28 49.58 25.33 95.01 4.62 63.59-28.98 80.79-111.71 82.13-118.65 7.6 6.34 35.97 28.27 72.27 20.36 30.72-6.69 49.32-30.88 58.47-42.78 13.9-18.08 22.17-37.39 27.14-53.08 7.65 33.57 25.44 77.33 63.59 99.54 38.01 22.14 74.74 10.35 87.16 5.57 0.58 16.68 4.3 77.03 41.97 124.19 39.26 49.15 99.98 64.67 156.67 40.9 4.43 12.12 48.44 127.22 151.8 153.21 76.12 19.14 155.39-17.35 206.3-94.45 8.93 7.12 45.88 34.74 93.3 23.17 66.37-16.19 93.47-94.55 95.64-101.14 6.74 7.74 32.08 34.97 68.91 34.26 31.18-0.6 52.51-20.86 63-30.82 19.72-18.73 31.16-40.99 37.53-56.88 19.99-46.49 92.23-226.69 54.08-320.07-44.05-107.78-24.03-392.08-24.03-392.08l-3913.42 157.95-299.49 234.13z"/>
					</g>
				</g>
				<g id="&lt;Group&gt;" style="opacity: .7">
					<g id="&lt;Group&gt;" style="opacity: .68;mix-blend-mode: overlay">
						<g id="&lt;Group&gt;">
							<path id="&lt;Path&gt;" class="s1" d="m3360.54 456.84c6.39 90.57 24.85 222.64-59.63 300.86-59.44 55.04-153.89 68.65-222.54 47.57-128.68-39.52-218.85-216.94-172.71-428.06-1.96 14.6-9 50.89-39.85 82.44-21.67 22.16-45.19 31.86-53.15 34.88-26.75 10.15-50.35 10.3-63.1 9.51-12.27 0.81-34.88 0.7-59.79-9.51q0 0 0 0c0 0-23.07-7.66-43.68-29.67-15.03-16.05-37.26-71.21-36.11-147.89-8.63 6.21-110.44 77.04-207.04 28.43-59.63-30.01-121.26-107.54-105.65-163 2.57-9.14 6.79-16.08 10.26-20.8-1.91 5.7-4.76 13.4-8.81 22.2-2.39 5.18-10.47 22.19-24.74 41.04-6.19 8.16-32.46 41.17-79.06 65.97-33.86 18.03-69.68 25.96-109.69 24.76-32.91-0.99-73.15-1.77-110.08-27.32-46.27-32.01-54.52-79.87-78.69-75.92-10.22 1.67-14.7 11.2-30.65 34.59-21.24 31.16-41.37 55.45-56.97 72.88-32.24 21.48-55.02 37.91-84.49 46.97q0 0 0 0c0 0-31.18 12.25-69.99 7.73-28.41-3.31-106.83-55.3-174.84-162.17-68.69 53.43-126.45 81.15-148.46 86.72-33 8.35-60.04 3.49-60.04 3.49q0 0 0 0c0 0-31.37-2.95-58.98-14.91-44.73-19.39-85.09-76.66-99.95-151.4-0.12 8.85-3.07 110.39-77.82 153.43-33.12 19.07-72.86 22.36-83 23.11 0 0-40.29 2.88-79.66-8.62-58.95-17.21-81.34-91.52-111.46-85.48-35.24 7.08-16.16 111.18-79.28 183.91-48.33 55.69-117.99 62.01-133.42 63.41-106.68 9.69-218.98-76.21-277.64-215.61-7.12 15.28-43.09 88.51-124.24 117.32-106.7 37.88-195.47-35.14-202.61-41.22-5.33 99.95-65.58 186.49-151.49 218.17-79.2 29.2-167.95 7.27-229.29-56.46-26.38 80.39-56.11 135.32-69.31 152.86-20.02 26.6-42.15 42.14-42.15 42.14q-0.01 0-0.01 0c-12.2 8.88-25.77 16.25-42.13 23.03-34.09 14.13-67.82 15.69-102.19-0.23-50.56-23.41-82.21-66.6-101.71-115.63-38.37-270.13-30.49-539.5-33.01-811.78 973.11 97.92 3428.29 163.09 4292.72 4.39-103.29 291.82-114.97 516.62-103.87 673.87z"/>
						</g>
					</g>
				</g>
			</g>
		</g>
	</g>
</svg>