<svg version="1.2" xmlns="http://www.w3.org/2000/svg" viewBox="0 0 3004 976" width="3000" height="975">
	<defs>
		<clipPath clipPathUnits="userSpaceOnUse" id="cp1">
			<path d="m262.32 646.22c-11.66-18.53-20.13-41.73-23.14-70.65-3.82-36.8 4.45-75.64 26.81-112.15 31.59-67.02 82.73-116.42 163.9-167.62 72.13-45.5 155.84-62.61 215.66-69.12-67.45 3.48-220.92 18.33-348.19 81.24q-2.13 1.08-4.24 2.15c-22.8 37.31-44.17 85.98-55.53 142.77-17.12 85.59-2.87 156.13 24.73 193.38z"/>
		</clipPath>
		<linearGradient id="g1" x2="1" gradientUnits="userSpaceOnUse" gradientTransform="matrix(452.003,-360.829,358.744,449.39,446.983,855.486)">
			<stop offset="0" stop-color="#d1d2d3"/>
			<stop offset=".191" stop-color="#d1d2d3"/>
			<stop offset=".689" stop-color="#dbdcdd"/>
			<stop offset="1" stop-color="#dbdcdd"/>
		</linearGradient>
		<clipPath clipPathUnits="userSpaceOnUse" id="cp2">
			<path d="m680.25 225.61q-0.02 0-0.26 0-0.17 0-0.43 0c-2.91 0-15.06 0.1-34.01 1.07-59.82 6.51-143.53 23.62-215.66 69.12-81.17 51.2-132.31 100.6-163.9 167.62 16.93-27.59 41.87-53.85 75.78-76.87 102.02-69.27 254.5-79.8 268.07-80.38 12.36-1.04 50.94-2.91 78.2-3.04q-0.05-0.93-0.11-1.86c-3.07-46.07-7.68-75.66-7.68-75.66z"/>
		</clipPath>
		<linearGradient id="g2" x2="1" gradientUnits="userSpaceOnUse" gradientTransform="matrix(478.671,0,0,253.968,212.935,477.463)">
			<stop offset="0" stop-color="#f4811f"/>
			<stop offset=".345" stop-color="#f4811f"/>
			<stop offset="1" stop-color="#fdc10c"/>
		</linearGradient>
		<clipPath clipPathUnits="userSpaceOnUse" id="cp3">
			<path d="m484.24 685.7c-29.08 17.53-60.05 25.31-89.95 27.59-30.94 2.35-96.36-10.45-131.97-67.07-27.6-37.25-41.85-107.79-24.73-193.38 11.36-56.79 32.73-105.46 55.53-142.77-12.52 6.33-24.77 13.07-36.59 20.36-121.99 75.05-159.33 201.6-143.18 301.72 5.18 32.11 14.88 59.81 27.52 83.59 35.44 17.48 88 34.47 156.63 33.75 77.33-0.81 141.7-31.14 186.74-63.79z"/>
		</clipPath>
		<linearGradient id="g3" x2="1" gradientUnits="userSpaceOnUse" gradientTransform="matrix(61.439,443.181,-436.845,60.561,41.566,344.916)">
			<stop offset="0" stop-color="#b2d234"/>
			<stop offset=".102" stop-color="#b2d234"/>
			<stop offset=".687" stop-color="#70be44"/>
			<stop offset="1" stop-color="#70be44"/>
		</linearGradient>
		<clipPath clipPathUnits="userSpaceOnUse" id="cp4">
			<path d="m582.54 555.58c-24.88 66.88-59.93 106.99-98.3 130.12-45.04 32.65-109.41 62.98-186.74 63.79-68.63 0.72-121.19-16.27-156.63-33.75q0.01 0.01 0.01 0.02c53.09 99.9 159.27 131.06 212.48 132.08 81.96 1.67 232.33-29.77 299.64-215.92 40.41-111.62 40.37-246.02 35.04-328.79-27.26 0.13-65.84 2-78.2 3.04 0.05 3.47 14.75 136.33-27.3 249.41z"/>
		</clipPath>
		<linearGradient id="g4" x2="1" gradientUnits="userSpaceOnUse" gradientTransform="matrix(0,-554.509,559.113,0,697.416,851.42)">
			<stop offset="0" stop-color="#25b24a"/>
			<stop offset=".287" stop-color="#25b24a"/>
			<stop offset=".996" stop-color="#9aca3b"/>
			<stop offset="1" stop-color="#9aca3b"/>
		</linearGradient>
	</defs>
	<style>
		.s0 { fill: url(#g1) } 
		.s1 { fill: url(#g2) } 
		.s2 { fill: url(#g3) } 
		.s3 { fill: url(#g4) } 
		.s4 { fill: #34b449 } 
	</style>
	<g id="Pic">
		<g id="&lt;Group&gt;">
			<g id="&lt;Group&gt;">
				<g id="Clip-Path: &lt;Clip Group&gt;" clip-path="url(#cp1)">
					<g id="&lt;Clip Group&gt;">
						<path id="&lt;Path&gt;" class="s0" d="m0 396.05l501.43-400.29 397.99 498.54-501.43 400.26z"/>
					</g>
				</g>
				<g id="Clip-Path: &lt;Clip Group&gt;" clip-path="url(#cp2)">
					<g id="&lt;Clip Group&gt;">
						<path id="&lt;Path&gt;" fill-rule="evenodd" class="s1" d="m691.61 223.49v253.97h-478.68v-253.97z"/>
					</g>
				</g>
				<g id="Clip-Path: &lt;Clip Group&gt;" clip-path="url(#cp3)">
					<g id="&lt;Clip Group&gt;">
						<path id="&lt;Path&gt;" class="s2" d="m526.46 246.82l68.8 496.19-489.09 67.77-68.8-496.16z"/>
					</g>
				</g>
				<g id="Clip-Path: &lt;Clip Group&gt;" clip-path="url(#cp4)">
					<g id="&lt;Clip Group&gt;">
						<path id="&lt;Path&gt;" class="s3" d="m136.65 853.05l0.04-556.14h560.72l-0.03 556.14z"/>
					</g>
				</g>
			</g>
			<g id="&lt;Group&gt;">
				<path id="&lt;Compound Path&gt;" fill-rule="evenodd" class="s4" d="m1307.16 467.27v258.66h-52.17l-0.2-22.55q-9.61 6.8-20.49 11.62c-16.45 7.29-35.19 10.99-55.68 10.99-19.99 0-38.27-3.71-54.33-11.03-15.93-7.26-29.67-17.03-40.87-29.02-11.22-11.96-19.88-25.9-25.77-41.42-5.84-15.43-8.82-31.53-8.82-47.9 0-16.94 3.06-33.38 9.08-48.84 6.06-15.49 14.79-29.36 25.99-41.18 11.22-11.84 24.98-21.43 40.9-28.55 16.02-7.16 34.14-10.78 53.82-10.78zm-162.08 200.31c9.68 4.62 21.4 6.95 34.81 6.95 11.54 0 21.97-2.09 31.02-6.22 9.26-4.19 17.34-9.83 24.01-16.76q9.62-9.63 15.35-24.31c1.28-3.6 4.58-20.96 4.58-97.47v-11.05h-76.22c-10.6 0-20.78 1.95-30.27 5.78-9.45 3.82-17.71 9.2-24.59 15.96-6.89 6.77-12.45 15-16.52 24.48-4.06 9.39-6.1 20.05-6.1 31.68 0 9.16 1.67 18.54 4.96 27.9 3.21 9.21 8.11 17.61 14.56 25.01 6.36 7.31 14.57 13.38 24.41 18.05z"/>
				<path id="&lt;Path&gt;" class="s4" d="m1540.56 492.74c-7.58-5.99-15.35-10.74-23.03-14.11-7.31-3.2-14.52-5.71-21.39-7.42-6.84-1.71-13.44-2.82-19.57-3.3-5.74-0.43-10.83-0.65-15.09-0.65h-114.15l-0.04 258.65h52.28v-206.85l63.18-0.34c12.37 0 21.94 1.52 28.46 4.51 7.08 3.24 12.6 6.57 16.19 9.72 5.48 5.06 9.94 12.1 13.28 20.92 3.48 9.29 5.25 21.7 5.25 36.86v135.18h52.74v-135.18c0-43.56-12.71-76.44-38.11-97.99z"/>
				<path id="&lt;Path&gt;" class="s4" d="m2364.14 492.74c-7.58-5.99-15.35-10.74-23.04-14.11-7.31-3.2-14.51-5.71-21.39-7.42-6.84-1.71-13.43-2.82-19.56-3.3-5.75-0.43-10.84-0.65-15.09-0.65-15.08 0-30.05 2.49-44.51 7.41q-8.87 3.02-16.77 7.49v-84.38h-52.94v328.23h52.29v-144.93c0-20.4 5.36-35.54 16.31-46.3 11.04-10.8 26.4-16.06 46.89-16.06 12.37 0 21.94 1.52 28.45 4.51 7.02 3.2 12.63 6.52 16.74 9.88 5.15 5.05 9.45 12.04 12.73 20.76 3.49 9.29 5.27 21.7 5.27 36.86v135.28h52.73v-135.28c0-43.56-12.71-76.44-38.11-97.99z"/>
				<path id="&lt;Compound Path&gt;" fill-rule="evenodd" class="s4" d="m2689.09 467.26v258.75h-52.77l0.41-22.63q-9.62 6.81-20.47 11.62c-16.46 7.29-35.2 11.01-55.7 11.01-19.97 0-38.26-3.73-54.33-11.05-15.9-7.25-29.66-17.02-40.87-29.02-11.2-11.95-19.86-25.9-25.76-41.43-5.85-15.42-8.84-31.52-8.84-47.9 0-16.93 3.07-33.38 9.09-48.83 6.04-15.5 14.79-29.36 25.99-41.18 11.21-11.83 24.99-21.43 40.9-28.56 16.03-7.15 34.15-10.78 53.82-10.78zm-162.08 200.32c9.69 4.61 21.4 6.95 34.81 6.95 11.55 0 21.98-2.09 31.02-6.19 9.26-4.23 17.35-9.86 24.03-16.76q9.62-9.68 15.33-24.33c1.3-3.61 4.59-20.99 4.59-97.48v-11.05h-76.24c-10.59 0-20.78 1.95-30.25 5.8-9.45 3.8-17.71 9.18-24.6 15.94-6.9 6.77-12.44 15-16.53 24.48-4.03 9.39-6.1 20.07-6.1 31.67 0 9.17 1.68 18.55 4.96 27.91 3.21 9.19 8.14 17.61 14.58 25 6.34 7.32 14.57 13.39 24.4 18.06z"/>
				<path id="&lt;Path&gt;" class="s4" d="m2780.66 664.41v61.91h-52.31v-328.54h52.9l0.11 178.57 82.09-109.08h66.49l-92.11 121.69 100.16 137.36h-67.66l-65.46-94.3z"/>
				<path id="&lt;Compound Path&gt;" fill-rule="evenodd" class="s4" d="m1019.85 645.68c-6.03 15.44-14.74 29.25-25.89 41.02-11.18 11.8-24.9 21.38-40.76 28.47-15.96 7.12-34.02 10.76-53.62 10.76h-128.06v-328.15h51.99l0.19 92.86c6.36-4.51 13.2-8.39 20.41-11.58 16.38-7.25 35.06-10.96 55.47-10.96 19.93 0 38.13 3.72 54.13 11.02 15.85 7.22 29.56 16.94 40.71 28.9 11.17 11.93 19.82 25.82 25.69 41.27 5.81 15.36 8.79 31.41 8.79 47.72 0 16.9-3.04 33.26-9.05 48.67zm-176.51-103.24c-6.25 6.25-11.34 14.34-15.01 23.75-1.42 3.91-4.69 21.21-4.69 97.42v11.01h75.94c10.57 0 20.71-1.92 30.14-5.76 9.41-3.79 17.67-9.15 24.52-15.88 6.85-6.75 12.4-14.95 16.47-24.41 4.03-9.34 6.06-19.95 6.06-31.56 0-9.1-1.65-18.45-4.92-27.78-3.21-9.15-8.09-17.55-14.52-24.92-6.35-7.28-14.52-13.35-24.31-18-9.65-4.57-21.34-6.9-34.7-6.9-11.49 0-21.89 2.06-30.91 6.16q-13.85 6.29-24.07 16.87z"/>
				<path id="&lt;Path&gt;" class="s4" d="m2087.9 645.28c-1.9 2.49-3.85 4.9-6.02 7.09-6.77 6.77-14.98 12.18-24.46 16.13-18.82 7.87-43.11 7.87-61.68 0.01-9.33-3.93-17.51-9.35-24.26-16.14-6.77-6.77-12.21-15-16.16-24.43-3.93-9.45-5.92-20.02-5.92-31.41 0-11.13 1.99-21.63 5.94-31.23 3.95-9.59 9.38-17.87 16.14-24.6 6.75-6.78 14.93-12.22 24.26-16.15 9.28-3.93 19.62-5.94 30.73-5.94 11.11 0 21.51 2.01 30.96 5.94 9.47 3.96 17.68 9.37 24.45 16.15 2.38 2.39 4.54 5.02 6.57 7.77h1.64l51.6-13.04c-6-11.55-13.56-21.99-22.63-31.07-11.67-11.66-25.51-20.88-41.18-27.4-15.67-6.53-32.97-9.83-51.41-9.83-18.48 0-35.78 3.3-51.44 9.83-15.66 6.52-29.52 15.74-41.18 27.4-11.66 11.65-20.88 25.52-27.38 41.16-6.52 15.67-9.83 32.82-9.83 51.01 0 18.17 3.3 35.38 9.82 51.17 6.51 15.87 15.76 29.75 27.44 41.29 11.68 11.49 25.52 20.61 41.12 27.11 15.67 6.53 32.97 9.81 51.45 9.81 18.44 0 35.75-3.28 51.41-9.81 15.63-6.5 29.46-15.63 41.11-27.11 8.89-8.77 16.35-18.9 22.28-30.23z"/>
				<path id="&lt;Compound Path&gt;" fill-rule="evenodd" class="s4" d="m1864.37 467.26v253.69c0 8.34-1.65 17.56-3.5 25.3q-1.65 7.39-4.08 14.45c-0.59 1.8-0.96 2.89-0.96 2.89l-0.09-0.06c-0.44 1.19-0.83 2.42-1.31 3.62-6.64 16.08-16.04 30.21-27.91 41.93-11.85 11.7-23.63 20.95-39.5 27.56-15.91 6.61-33.49 9.99-52.26 9.99-18.75 0-36.35-3.38-52.24-9.99-15.9-6.61-29.94-15.87-41.79-27.56-9.01-8.91-16.59-19.21-22.63-30.71l54.23-13.7c1.92 2.52 3.91 4.99 6.13 7.2 6.87 6.87 15.22 12.39 24.83 16.4 19.14 8.01 43.83 8.01 62.66 0.01 9.51-4 17.81-9.53 24.71-16.41 6.86-6.86 12.35-15.22 16.38-24.82 1.6-3.81 2.75-7.88 3.7-12.04 0.73-5.07 1.35-12.5 1.37-22.83l-0.1-8.8q-9.6 6.81-20.49 11.63c-16.45 7.28-35.19 10.98-55.68 10.98-19.99 0-38.27-3.73-54.33-11.03-15.92-7.26-29.66-17.02-40.86-29-11.2-11.97-19.87-25.92-25.78-41.45-5.84-15.4-8.82-31.52-8.82-47.89 0-16.96 3.06-33.38 9.08-48.84 6.05-15.49 14.8-29.36 25.99-41.19 11.21-11.82 24.97-21.44 40.88-28.55 16.05-7.15 34.16-10.78 53.84-10.78zm-52.3 62.51v-11.02h-76.24c-10.59 0-20.77 1.92-30.26 5.77-9.44 3.83-17.7 9.17-24.58 15.94-6.89 6.77-12.47 15.01-16.53 24.49-4.07 9.39-6.1 20.06-6.1 31.67 0 9.16 1.67 18.54 4.95 27.9 3.22 9.19 8.14 17.59 14.57 25.01 6.37 7.31 14.57 13.38 24.42 18.05 9.68 4.61 21.38 6.95 34.79 6.95 11.55 0 21.99-2.09 31.04-6.19 9.25-4.22 17.31-9.87 24.02-16.79q9.61-9.65 15.32-24.3c1.3-3.61 4.6-20.99 4.6-97.48z"/>
			</g>
		</g>
	</g>
</svg>