<svg version="1.2" xmlns="http://www.w3.org/2000/svg" viewBox="0 0 2600 1733" width="3000" height="2000">
	<defs>
		<clipPath clipPathUnits="userSpaceOnUse" id="cp1">
			<path d="m2600 1733.17h-2600v-1733.34h2600z"/>
		</clipPath>
		<linearGradient id="g1" x2="1" gradientUnits="userSpaceOnUse" gradientTransform="matrix(0,-2270.668,3406,0,910,1863.167)">
			<stop offset="0" stop-color="#2a9fb5"/>
			<stop offset="1" stop-color="#add5f7"/>
		</linearGradient>
		<clipPath clipPathUnits="userSpaceOnUse" id="cp2">
			<path d="m2600 1733.17h-2600v-1733.34h2600z"/>
		</clipPath>
		<clipPath clipPathUnits="userSpaceOnUse" id="cp3">
			<path d="m2600 1733.17h-2600v-1733.34h2600z"/>
		</clipPath>
		<linearGradient id="g2" x2="1" gradientUnits="userSpaceOnUse" gradientTransform="matrix(.257,-1474.346,5540.256,.967,1369.947,2309.96)">
			<stop offset="0" stop-color="#93d4f0"/>
			<stop offset="1" stop-color="#d1d3d4"/>
		</linearGradient>
		<clipPath clipPathUnits="userSpaceOnUse" id="cp4">
			<path d="m2600 1733.17h-2600v-1733.34h2600z"/>
		</clipPath>
		<clipPath clipPathUnits="userSpaceOnUse" id="cp5">
			<path d="m2600 1733.17h-2600v-1733.34h2600z"/>
		</clipPath>
		<linearGradient id="g3" x2="1" gradientUnits="userSpaceOnUse" gradientTransform="matrix(0,-757.375,2846.035,0,505.835,1998.81)">
			<stop offset="0" stop-color="#78caec"/>
			<stop offset="1" stop-color="#e6e7e8"/>
		</linearGradient>
		<clipPath clipPathUnits="userSpaceOnUse" id="cp6">
			<path d="m1930.98-271l424.84 1585.53-2378.29 637.26-424.84-1585.53z"/>
		</clipPath>
		<linearGradient id="g4" x2="1" gradientUnits="userSpaceOnUse" gradientTransform="matrix(297.708,23.684,-23.368,293.738,269.266,639.637)">
			<stop offset="0" stop-color="#f1f2f2"/>
			<stop offset="1" stop-color="#939598"/>
		</linearGradient>
		<linearGradient id="g5" x2="1" gradientUnits="userSpaceOnUse" gradientTransform="matrix(110.158,8.764,-8.325,104.651,261.368,846.987)">
			<stop offset="0" stop-color="#f1f2f2"/>
			<stop offset="1" stop-color="#939598"/>
		</linearGradient>
		<linearGradient id="g6" x2="1" gradientUnits="userSpaceOnUse" gradientTransform="matrix(280.508,22.316,-21.389,268.862,286.466,644.959)">
			<stop offset="0" stop-color="#f1f2f2"/>
			<stop offset="1" stop-color="#d1d3d4"/>
		</linearGradient>
		<linearGradient id="g7" x2="1" gradientUnits="userSpaceOnUse" gradientTransform="matrix(402.378,32.011,-15.589,195.947,162.074,623.098)">
			<stop offset="0" stop-color="#f1f2f2"/>
			<stop offset="1" stop-color="#d1d3d4"/>
		</linearGradient>
		<clipPath clipPathUnits="userSpaceOnUse" id="cp7">
			<path d="m2935.4-308v1664.27h-2496.4v-1664.27z"/>
		</clipPath>
		<linearGradient id="g8" x2="1" gradientUnits="userSpaceOnUse" gradientTransform="matrix(358.897,28.552,-11.142,140.049,2039.212,229.622)">
			<stop offset="0" stop-color="#f1f2f2"/>
			<stop offset="1" stop-color="#939598"/>
		</linearGradient>
		<linearGradient id="g9" x2="1" gradientUnits="userSpaceOnUse" gradientTransform="matrix(131.277,10.444,-5.887,74.005,2268.049,353.636)">
			<stop offset="0" stop-color="#f1f2f2"/>
			<stop offset="1" stop-color="#939598"/>
		</linearGradient>
		<linearGradient id="g10" x2="1" gradientUnits="userSpaceOnUse" gradientTransform="matrix(320.056,25.462,-12.906,162.231,2032.318,232.712)">
			<stop offset="0" stop-color="#f1f2f2"/>
			<stop offset="1" stop-color="#d1d3d4"/>
		</linearGradient>
		<linearGradient id="g11" x2="1" gradientUnits="userSpaceOnUse" gradientTransform="matrix(429.515,34.17,-4.983,62.64,2030.013,224.183)">
			<stop offset="0" stop-color="#f1f2f2"/>
			<stop offset="1" stop-color="#d1d3d4"/>
		</linearGradient>
	</defs>
	<style>
		.s0 { fill: url(#g1) } 
		.s1 { fill: #ffffff } 
		.s2 { fill: url(#g2) } 
		.s3 { fill: url(#g3) } 
		.s4 { fill: url(#g4) } 
		.s5 { fill: url(#g5) } 
		.s6 { fill: url(#g6) } 
		.s7 { fill: url(#g7) } 
		.s8 { fill: url(#g8) } 
		.s9 { fill: url(#g9) } 
		.s10 { fill: url(#g10) } 
		.s11 { fill: url(#g11) } 
	</style>
	<g id="_Artboards_">
	</g>
	<g id="bg">
		<g id="&lt;Clip Group&gt;" clip-path="url(#cp1)">
			<path id="&lt;Path&gt;" class="s0" d="m2600 1733.17h-2600v-1733.34h2600z"/>
		</g>
	</g>
	<g id="cloud2">
		<g id="&lt;Clip Group&gt;" clip-path="url(#cp2)">
		</g>
		<g id="&lt;Clip Group&gt;" clip-path="url(#cp3)">
			<g id="&lt;Group&gt;">
				<path id="&lt;Path&gt;" class="s1" d="m2636.02 1298.29c-55.47 0-106.74 17.94-148.4 48.27-28.2-23.51-64.47-37.67-104.05-37.67-68.06 0-126.32 41.83-150.56 101.17-13.74-126.46-120.82-224.89-250.93-224.89-116.46 0-214.44 78.88-243.58 186.1-32.33-15.04-68.36-23.5-106.37-23.5-78.95 0-149.42 36.27-195.71 93.02-10.35-2.06-21.05-3.16-32-3.16-38.11 0-73.12 13.14-100.84 35.09-59.81-46.56-143-75.46-235.04-75.46-10.42 0-20.71 0.41-30.89 1.14-29.02-44.47-79.18-73.89-136.24-73.89-15.76 0-30.98 2.29-45.4 6.48-40.2-86.12-127.52-145.82-228.83-145.82-90.47 0-169.79 47.62-214.36 119.13-12.22-2.93-24.97-4.53-38.1-4.53-52.44 0-99.06 24.85-128.79 63.4-115.98 22.8-203.48 125-203.48 247.66 0 139.43 113.03 252.46 252.45 252.46 67.59 0 128.93-26.61 174.24-69.86 45.58 65.69 121.51 108.75 207.53 108.75 65.44 0 125.07-24.91 169.93-65.76 58.58 40.85 136.46 65.76 221.94 65.76 131.33 0 244.71-58.81 297.73-143.89 12.24 2.94 25.01 4.54 38.15 4.54 10.95 0 21.65-1.1 32-3.16 46.29 56.76 116.76 93.02 195.71 93.02 53.59 0 103.25-16.75 144.12-45.23 42.26 80.3 126.46 135.09 223.5 135.09 63.25 0 121.02-23.32 165.32-61.75 38.32 23.46 83.38 37 131.61 37 99.48 0 185.49-57.56 226.62-141.17 33.94 16.97 72.2 26.57 112.72 26.57 139.43 0 252.46-113.03 252.46-252.46 0-139.43-113.03-252.45-252.46-252.45z"/>
				<path id="&lt;Path&gt;" class="s2" d="m2641.48 1301.96c-55.48 0-106.75 17.94-148.41 48.27-28.2-23.51-64.47-37.67-104.05-37.67-68.06 0-126.32 41.83-150.56 101.17-13.74-126.46-120.82-224.89-250.93-224.89-116.45 0-214.44 78.88-243.58 186.1-32.33-15.04-68.35-23.5-106.37-23.5-78.95 0-149.42 36.27-195.71 93.03-10.35-2.07-21.04-3.17-32-3.17-38.1 0-73.12 13.14-100.84 35.09-59.81-46.56-143-75.46-235.04-75.46-10.42 0-20.71 0.42-30.89 1.14-29.01-44.47-79.18-73.89-136.24-73.89-15.76 0-30.98 2.29-45.4 6.48-40.2-86.12-127.52-145.82-228.83-145.82-90.47 0-169.78 47.62-214.36 119.13-12.22-2.93-24.97-4.53-38.1-4.53-52.44 0-99.05 24.86-128.79 63.4-115.98 22.8-203.48 125-203.48 247.67 0 139.42 113.03 252.45 252.46 252.45 67.59 0 128.92-26.61 174.23-69.86 45.59 65.7 121.51 108.75 207.53 108.75 65.45 0 125.07-24.91 169.93-65.76 58.58 40.85 136.46 65.76 221.94 65.76 131.34 0 244.71-58.8 297.73-143.89 12.24 2.94 25.01 4.54 38.15 4.54 10.96 0 21.65-1.1 32-3.16 46.29 56.76 116.76 93.02 195.71 93.02 53.6 0 103.25-16.75 144.12-45.23 42.26 80.3 126.47 135.08 223.51 135.08 63.25 0 121.01-23.31 165.31-61.74 38.33 23.46 83.38 37 131.61 37 99.48 0 185.49-57.56 226.62-141.17 33.94 16.97 72.2 26.57 112.73 26.57 139.43 0 252.46-113.03 252.46-252.46 0-139.42-113.03-252.45-252.46-252.45z"/>
			</g>
		</g>
	</g>
	<g id="cloud1">
		<g id="&lt;Clip Group&gt;" clip-path="url(#cp4)" style="opacity: .8">
		</g>
		<g id="&lt;Clip Group&gt;" clip-path="url(#cp5)">
			<g id="&lt;Group&gt;">
				<path id="&lt;Path&gt;" class="s1" d="m-573.39 1353.85c55.48 0 106.74 17.94 148.4 48.27 28.2-23.51 64.47-37.66 104.06-37.66 68.05 0 126.31 41.82 150.55 101.16 13.74-126.45 120.83-224.88 250.93-224.88 116.46 0 214.44 78.87 243.59 186.1 32.33-15.05 68.35-23.5 106.36-23.5 78.96 0 149.42 36.26 195.72 93.02 10.34-2.07 21.04-3.17 32-3.17 38.1 0 73.11 13.15 100.83 35.1 59.82-46.56 143.01-75.46 235.05-75.46 10.42 0 20.71 0.41 30.88 1.13 29.02-44.47 79.18-73.88 136.24-73.88 15.77 0 30.99 2.29 45.4 6.47 40.21-86.11 127.53-145.81 228.83-145.81 90.48 0 169.79 47.62 214.36 119.13 12.23-2.94 24.98-4.53 38.1-4.53 52.45 0 99.06 24.85 128.79 63.39 115.99 22.81 203.49 125 203.49 247.67 0 139.43-113.03 252.46-252.46 252.46-67.59 0-128.93-26.61-174.24-69.87-45.58 65.7-121.51 108.75-207.52 108.75-65.45 0-125.08-24.91-169.93-65.76-58.59 40.85-136.46 65.76-221.94 65.76-131.34 0-244.72-58.8-297.74-143.88-12.24 2.94-25 4.54-38.14 4.54-10.96 0-21.66-1.1-32-3.17-46.3 56.76-116.76 93.03-195.72 93.03-53.59 0-103.24-16.75-144.12-45.23-42.26 80.3-126.46 135.08-223.5 135.08-63.25 0-121.02-23.31-165.31-61.75-38.33 23.47-83.39 37.01-131.62 37.01-99.48 0-185.48-57.56-226.62-141.17-33.93 16.96-72.2 26.57-112.72 26.57-139.43 0-252.46-113.03-252.46-252.46 0-139.43 113.03-252.46 252.46-252.46z"/>
				<path id="&lt;Path&gt;" class="s3" d="m-563.95 1354.55c55.48 0 106.74 17.94 148.4 48.28 28.2-23.52 64.47-37.67 104.06-37.67 68.05 0 126.31 41.82 150.55 101.16 13.74-126.45 120.83-224.88 250.94-224.88 116.45 0 214.43 78.87 243.58 186.1 32.33-15.05 68.35-23.5 106.36-23.5 78.96 0 149.42 36.26 195.72 93.02 10.34-2.06 21.04-3.17 32-3.17 38.1 0 73.11 13.15 100.83 35.1 59.82-46.56 143.01-75.46 235.05-75.46 10.42 0 20.71 0.41 30.88 1.14 29.02-44.47 79.18-73.89 136.24-73.89 15.77 0 30.99 2.29 45.4 6.47 40.21-86.11 127.53-145.81 228.84-145.81 90.47 0 169.78 47.62 214.36 119.13 12.22-2.94 24.97-4.53 38.09-4.53 52.45 0 99.06 24.85 128.79 63.39 115.99 22.81 203.49 125 203.49 247.67 0 139.43-113.03 252.46-252.46 252.46-67.59 0-128.92-26.61-174.24-69.87-45.58 65.7-121.5 108.75-207.52 108.75-65.45 0-125.08-24.91-169.93-65.76-58.58 40.85-136.46 65.76-221.94 65.76-131.34 0-244.72-58.8-297.74-143.89-12.24 2.95-25 4.55-38.14 4.55-10.96 0-21.65-1.1-32-3.17-46.3 56.76-116.76 93.02-195.72 93.02-53.59 0-103.24-16.74-144.12-45.22-42.25 80.3-126.46 135.08-223.5 135.08-63.25 0-121.02-23.31-165.31-61.74-38.33 23.46-83.39 37-131.62 37-99.47 0-185.48-57.56-226.62-141.17-33.94 16.97-72.2 26.57-112.72 26.57-139.43 0-252.46-113.03-252.46-252.46 0-139.43 113.03-252.46 252.46-252.46z"/>
			</g>
		</g>
	</g>
	<g id="plane">
		<g id="&lt;Group&gt;">
			<g id="&lt;Clip Group&gt;" clip-path="url(#cp6)">
				<g id="&lt;Group&gt;">
					<g id="&lt;Group&gt;">
						<path id="&lt;Path&gt;" class="s1" d="m-332.76 1513.19q-7.88-0.58-15.76-1.28l0.7-7.84q7.81 0.69 15.64 1.26z"/>
					</g>
					<g id="&lt;Group&gt;">
						<path id="&lt;Compound Path&gt;" class="s1" d="m-164.64 1512.31q-5.65 0.47-11.3 0.88l-0.57-7.85q15.54-1.14 31.04-2.73l0.8 7.83q-9.98 1.03-19.97 1.87zm-42.63 2.71c-10.41 0.46-20.97 0.77-31.38 0.92l-0.12-7.87c10.34-0.15 20.82-0.46 31.15-0.92zm93.78-8.23l-1.03-7.81c10.21-1.35 20.59-2.87 30.84-4.53l1.25 7.78c-10.32 1.67-20.77 3.2-31.06 4.56zm-156.54 9.16c-10.43-0.15-20.98-0.46-31.38-0.92l0.34-7.87c10.33 0.46 20.81 0.76 31.15 0.92zm218.52-19.19l-1.48-7.73c10.07-1.93 20.34-4.05 30.51-6.31l1.71 7.69c-10.26 2.27-20.6 4.41-30.74 6.35zm61.28-13.61l-1.93-7.63c10.03-2.54 20.16-5.26 30.09-8.09l2.16 7.57c-10.01 2.85-20.21 5.59-30.32 8.15zm150.73-24.06c-9.67 0.81-19.67 1.3-29.74 1.46l-0.13-7.87c9.89-0.16 19.72-0.65 29.22-1.44l1.72-0.15 0.71 7.84zm-90.36 6.88l-2.38-7.5q0.93-0.3 1.86-0.59-0.9-0.1-1.81-0.2l0.85-7.82q6.09 0.65 12.14 1.14 3.99 0.33 7.92 0.58 3.07-1.04 6.13-2.1l2.47-0.86 1.24 3.53q0.52 0.02 1.04 0.05l-0.12 2.58 0.45 1.27-0.51 0.18-0.18 3.83q-4.66-0.21-9.47-0.52c-6.55 2.22-13.12 4.37-19.63 6.43zm123.46-11.05l-1.33-7.76c10.34-1.77 20.5-3.97 30.2-6.55l2.03 7.6c-9.94 2.65-20.33 4.91-30.9 6.71zm61.05-16.37l-2.79-7.37c4.76-1.8 9.51-3.74 14.11-5.78 4.75-2.09 9.47-4.35 14.04-6.72l3.62 6.99c-4.71 2.45-9.59 4.78-14.48 6.94-4.73 2.09-9.61 4.09-14.5 5.94zm-218.14 14.14c-11.23-2.49-21.2-5.58-30.5-9.45l3.03-7.26c8.86 3.68 18.4 6.63 29.18 9.02zm92.85-8.14l-3.24-7.18c10.26-4.62 18.97-9.49 26.63-14.86l4.52 6.45c-8.07 5.66-17.2 10.75-27.91 15.59zm181.52-35.13l-4.43-6.5c8.51-5.81 16.68-12.17 24.27-18.89l5.22 5.89c-7.84 6.95-16.27 13.51-25.06 19.5zm-332.91 18.04c-8.52-6.41-16.27-14.5-22.41-23.41l6.48-4.47c5.67 8.22 12.81 15.69 20.66 21.59zm202.93-20.52l-6.17-4.9c6.56-8.27 11.24-17.05 13.92-26.11l7.55 2.24c-2.97 10.02-8.11 19.7-15.3 28.77zm177.38-39.65l-5.97-5.13c6.76-7.86 12.9-16.15 18.26-24.64l6.66 4.2c-5.56 8.82-11.94 17.42-18.95 25.57zm-416.37 7.26c-1.1-4.31-1.85-8.66-2.21-12.94-0.56-6.76-0.18-13.43 1.14-19.82l7.71 1.6c-1.16 5.65-1.5 11.55-1 17.56 0.32 3.84 0.99 7.76 1.99 11.64zm248.26-27.72c-1.75-9.38-5.54-18.55-11.28-27.26l6.57-4.33c6.32 9.58 10.51 19.73 12.45 30.15zm201.88-33.32l-7.25-3.08c2.37-5.57 4.46-11.29 6.23-16.99 1.22-3.93 2.31-7.98 3.22-12.04l7.68 1.73c-0.96 4.26-2.1 8.51-3.37 12.63-1.85 5.97-4.04 11.94-6.51 17.75zm-430.85 3.68l-6.1-4.97c6.42-7.88 14.81-14.9 24.93-20.85l3.99 6.78c-9.31 5.48-16.99 11.89-22.82 19.04zm197.35-19.49c-5.68-4.43-11.8-8.16-18.17-11.09-2.57-1.19-5.29-2.31-8.07-3.34l2.74-7.39c2.97 1.11 5.87 2.3 8.63 3.57 6.91 3.18 13.55 7.23 19.71 12.03zm-146.74-11.74l-2.41-7.5c8.88-2.86 18.5-5.21 28.61-6.97l2.36-0.4 1.29 7.76-2.3 0.4c-9.74 1.7-19.01 3.95-27.55 6.71zm394.24-34.51l-7.87-0.3c0.26-6.85 0.1-13.79-0.47-20.64-0.28-3.29-0.65-6.6-1.12-9.84l7.8-1.12c0.49 3.39 0.88 6.86 1.17 10.3 0.6 7.16 0.76 14.43 0.49 21.6zm-303.22 24.89c-9.48-1.14-19.76-1.45-30.56-0.91l-0.38-7.87c11.24-0.55 21.97-0.23 31.89 0.97zm286.69-85.35c-3.32-9.78-7.55-19.1-12.58-27.72l6.8-3.97c5.3 9.07 9.75 18.88 13.24 29.15zm-30.63-52.09c-4.68-5.03-9.76-9.68-15.12-13.85-2.49-1.93-5.18-3.88-7.99-5.77l4.41-6.53c2.95 1.99 5.78 4.04 8.41 6.08 5.69 4.43 11.09 9.37 16.05 14.7zm-49.72-35.24l-4.41-2.35c-7.64-4.1-15.55-8.33-23.12-12.91l4.08-6.74c7.39 4.48 15.2 8.66 22.76 12.7l4.41 2.36zm-53.23-34.43c-8.53-8.1-15.18-16.77-19.76-25.76l7.02-3.57c4.17 8.19 10.28 16.13 18.16 23.61zm-19.16-57.53l-7.86-0.33c0.41-9.81 3.04-20.43 7.8-31.56l7.24 3.09c-4.38 10.26-6.8 19.95-7.18 28.8zm22.08-55.37l-6.49-4.45c5.71-8.33 12.36-16.71 19.75-24.91l5.85 5.28c-7.16 7.93-13.59 16.04-19.11 24.08z"/>
					</g>
					<g id="&lt;Group&gt;">
						<path id="&lt;Path&gt;" class="s1" d="m300.27 910.3l-5.16-5.95c4.26-3.69 8.46-7.08 12.49-10.06l4.69 6.32c-3.87 2.87-7.91 6.13-12.02 9.69z"/>
					</g>
				</g>
			</g>
			<path id="&lt;Path&gt;" class="s4" d="m255.36 841.74l0.22 100.26 311.39-269.4z"/>
			<path id="&lt;Path&gt;" class="s5" d="m277.82 850.7l-22.24 91.3 114.92-93z"/>
			<path id="&lt;Path&gt;" class="s6" d="m371.53 920.62l-93.71-69.92 289.15-178.1z"/>
			<path id="&lt;Path&gt;" class="s7" d="m157.52 810.06l97.84 31.68 309.09-168.29z"/>
		</g>
	</g>
	<g id="plane copy 2">
		<g id="&lt;Group&gt;">
			<g id="&lt;Clip Group&gt;" clip-path="url(#cp7)">
				<g id="&lt;Group&gt;">
					<g id="&lt;Group&gt;">
						<path id="&lt;Path&gt;" class="s1" d="m3124.19 845.31q7.57-2.64 15.1-5.39l-2.74-7.5q-7.47 2.73-14.99 5.34z"/>
					</g>
					<g id="&lt;Group&gt;">
						<path id="&lt;Compound Path&gt;" class="s1" d="m2959.31 888.56q5.65-1.02 11.3-2.1l-1.5-7.84q-15.52 2.96-31.12 5.47l1.27 7.88q10.04-1.61 20.05-3.41zm42.47-8.53c10.31-2.28 20.73-4.75 30.97-7.33l-1.95-7.74c-10.17 2.56-20.51 5.01-30.75 7.27zm-94.01 16.55l-1.04-7.92c-10.35 1.36-20.91 2.59-31.38 3.66l0.81 7.94c10.55-1.07 21.18-2.31 31.61-3.68zm155.72-32.11c10.17-2.88 20.43-5.96 30.49-9.13l-2.4-7.62c-9.99 3.15-20.17 6.21-30.27 9.07zm-219.04 38.56l-0.57-7.97c-10.37 0.75-20.99 1.37-31.55 1.83l0.35 7.98c10.64-0.47 21.33-1.09 31.77-1.84zm-63.58 2.74l-0.12-7.98c-10.49 0.15-21.12 0.14-31.59-0.02l-0.12 7.98c10.55 0.17 21.25 0.17 31.83 0.02zm-153.94 15.99c9.68-1.74 19.61-3.89 29.52-6.37l-1.94-7.74c-9.73 2.43-19.49 4.54-29 6.25l-1.72 0.31 1.36 7.86zm90.3-16.97l0.36-7.97q-0.99-0.05-1.97-0.09 0.86-0.33 1.71-0.67l-2.88-7.44q-5.79 2.24-11.58 4.31-3.83 1.36-7.61 2.65-3.29-0.22-6.55-0.45l-2.65-0.2-0.29 3.78q-0.5 0.16-1 0.32l0.79 2.5-0.11 1.36 0.55 0.05 1.18 3.7q4.5-1.43 9.14-2.99c6.99 0.45 13.99 0.83 20.91 1.14zm-123.81 21.58l-0.74-7.95c-10.58 0.98-21.11 1.49-31.3 1.5l0.01 7.99c10.43-0.02 21.21-0.53 32.03-1.54zm-64.09-0.01l0.8-7.95c-5.13-0.52-10.29-1.17-15.34-1.96-5.19-0.8-10.41-1.78-15.51-2.9l-1.71 7.8c5.26 1.15 10.64 2.16 16 2.99 5.18 0.81 10.49 1.48 15.76 2.02zm217.35-43.4c10.34-5.38 19.3-11.03 27.39-17.25l-4.87-6.33c-7.71 5.94-16.29 11.33-26.21 16.5zm-93.07 16.39l1.29-7.88c-11.26-1.84-21.07-4.32-29.98-7.57l-2.73 7.51c9.38 3.42 19.66 6.02 31.42 7.94zm-186.99 13.24l2.64-7.54c-9.87-3.45-19.54-7.54-28.74-12.13l-3.57 7.14c9.51 4.75 19.49 8.96 29.67 12.53zm330.77-69.7c6.66-8.51 12.13-18.47 15.8-28.81l-7.52-2.68c-3.39 9.54-8.43 18.73-14.56 26.57zm-204.13 33.15l4.76-6.41c-8.59-6.38-15.48-13.75-20.48-21.92l-6.81 4.17c5.53 9.04 13.11 17.17 22.53 24.16zm-184.12 7.72l4.5-6.6c-8.68-5.92-16.88-12.43-24.35-19.33l-5.42 5.86c7.76 7.18 16.27 13.93 25.27 20.07zm409.67-102.15c-0.04-4.51-0.46-8.97-1.23-13.26-1.22-6.77-3.34-13.2-6.31-19.1l-7.14 3.59c2.63 5.22 4.51 10.91 5.59 16.93 0.7 3.85 1.07 7.86 1.11 11.92zm-250.4 38c-0.76-9.64 0.55-19.62 3.89-29.66l-7.57-2.51c-3.68 11.04-5.12 22.07-4.28 32.79zm-206.46 20.34l6.29-4.91c-3.78-4.84-7.33-9.89-10.56-15.01-2.23-3.53-4.35-7.21-6.32-10.95l-7.06 3.72c2.06 3.92 4.29 7.78 6.62 11.48 3.38 5.36 7.09 10.63 11.03 15.67zm422.91-109.45l4.67-6.47c-8.35-6.03-18.4-10.7-29.88-13.88l-2.13 7.69c10.56 2.93 19.76 7.18 27.34 12.66zm-198.38 32.69c4.4-5.83 9.41-11.08 14.88-15.62 2.21-1.84 4.57-3.65 7.03-5.39l-4.62-6.52c-2.62 1.86-5.15 3.8-7.51 5.76-5.94 4.93-11.38 10.64-16.15 16.96zm140.62-50.01l0.4-7.97c-9.45-0.48-19.49-0.25-29.85 0.67l-2.42 0.23 0.78 7.95 2.36-0.22c9.98-0.89 19.65-1.12 28.73-0.66zm-395.15 69.66l7.63-2.36c-2.06-6.64-3.72-13.48-4.96-20.34-0.59-3.29-1.09-6.63-1.49-9.93l-7.93 0.95c0.42 3.45 0.94 6.95 1.57 10.4 1.29 7.17 3.03 14.33 5.18 21.28zm303.49-55.19c8.98-3.6 18.97-6.61 29.69-8.92l-1.69-7.8c-11.15 2.41-21.57 5.54-30.98 9.31zm-303.17-8.35c0.69-10.44 2.39-20.69 5.05-30.44l-7.7-2.11c-2.81 10.27-4.59 21.05-5.32 32.02zm16.33-59.06c3.26-6.14 7.02-12.04 11.17-17.52 1.93-2.55 4.06-5.16 6.31-7.75l-6.03-5.23c-2.37 2.72-4.6 5.46-6.64 8.16-4.41 5.82-8.4 12.08-11.87 18.6zm39.46-47.56l3.69-3.46c6.42-6.02 13.05-12.24 19.26-18.71l-5.76-5.53c-6.06 6.33-12.62 12.47-18.96 18.41l-3.7 3.48zm43.09-47.7c6.23-10.17 10.47-20.4 12.59-30.41l-7.8-1.66c-1.94 9.12-5.84 18.51-11.6 27.9zm3.67-61.37l7.62-2.39c-2.98-9.5-8.34-19.21-15.93-28.87l-6.28 4.93c6.99 8.9 11.9 17.76 14.59 26.33zm-36.15-48.43l5.19-6.07c-7.78-6.66-16.49-13.13-25.88-19.21l-4.34 6.7c9.09 5.89 17.52 12.14 25.03 18.58z"/>
					</g>
					<g id="&lt;Group&gt;">
						<path id="&lt;Path&gt;" class="s1" d="m2346.02 420.98l3.49-7.18c-5.13-2.5-10.13-4.71-14.87-6.58l-2.93 7.43c4.54 1.79 9.36 3.92 14.31 6.33z"/>
					</g>
				</g>
			</g>
			<path id="&lt;Path&gt;" class="s8" d="m2372.01 342.05l26.1 98.25-375.66-182.13z"/>
			<path id="&lt;Path&gt;" class="s9" d="m2352.37 356.73l45.74 83.57-136.96-60.92z"/>
			<path id="&lt;Path&gt;" class="s10" d="m2278.94 449.79l73.43-93.06-329.92-98.56z"/>
			<path id="&lt;Path&gt;" class="s11" d="m2459.53 285.35l-87.52 56.7-346.86-83.7z"/>
		</g>
	</g>
</svg>