<svg version="1.2" xmlns="http://www.w3.org/2000/svg" viewBox="0 0 1106 1660" width="2500" height="3752">
	<defs>
		<clipPath clipPathUnits="userSpaceOnUse" id="cp1">
			<path d="m1105.8 1659.16h-1105.55v-1658.32h1105.55z"/>
		</clipPath>
	</defs>
	<style>
		.s0 { fill: #ffe8cc } 
		.s1 { fill: #ffc485 } 
		.s2 { fill: #9dd3ce } 
		.s3 { fill: #e88161 } 
		.s4 { fill: #d4583c } 
	</style>
	<g id="_Artboards_">
	</g>
	<g id="Layer 1">
		<g id="&lt;Group&gt;">
			<g id="&lt;Group&gt;">
				<g id="&lt;Clip Group&gt;" clip-path="url(#cp1)">
					<path id="&lt;Path&gt;" class="s0" d="m1105.8 1659.16h-1105.55v-1658.32h1105.55z"/>
					<g id="&lt;Group&gt;">
						<path id="&lt;Path&gt;" class="s1" d="m894.41-2.31v526.67 131.67 32.92 16.46 8.22c0.01 2.75-0.02 5.49 0.08 8.23q0.09 4.12 0.22 8.23l0.62 8.2 0.16 2.06c0.06 0.68 0.16 1.36 0.24 2.04l0.52 4.08 0.52 4.08c0.07 0.68 0.22 1.36 0.33 2.03l0.36 2.03 0.73 4.05 0.36 2.02q0.09 0.51 0.19 1.01l0.23 1.01 1.85 8.01 0.23 1.01q0.13 0.49 0.27 0.99l0.57 1.98 1.12 3.96 0.56 1.97q0.27 1 0.6 1.97l1.32 3.9c0.89 2.59 1.7 5.22 2.77 7.75l1.51 3.83 0.75 1.91c0.26 0.64 0.49 1.28 0.79 1.9l3.39 7.5c0.53 1.26 1.19 2.47 1.81 3.69l1.88 3.66 0.94 1.83c0.31 0.61 0.61 1.23 0.96 1.82l2.06 3.56c1.37 2.38 2.69 4.79 4.22 7.07l2.22 3.46 1.11 1.73 0.55 0.87q0.29 0.42 0.59 0.84l4.77 6.71c6.57 8.79 13.78 17.09 21.56 24.83l5.96 5.67c2.04 1.83 4.14 3.61 6.2 5.41l1.56 1.35c0.52 0.44 1.07 0.85 1.6 1.28l3.24 2.54 3.23 2.54q1.67 1.21 3.35 2.4l3.36 2.38 1.67 1.19 1.73 1.12 6.93 4.44 7.13 4.1 1.79 1.02 1.83 0.94 3.66 1.87 3.67 1.87 3.75 1.7 3.75 1.69q0.93 0.43 1.87 0.85l1.92 0.75 7.65 3.01 7.8 2.64 1.95 0.66 1.98 0.56 3.96 1.13 3.95 1.12 4.01 0.93 4.01 0.92 2.01 0.47c0.66 0.15 1.34 0.25 2.02 0.37l8.1 1.45c10.85 1.62 21.81 2.45 32.79 2.54 10.97-0.09 21.93-0.92 32.79-2.54l8.1-1.45c0.67-0.12 1.35-0.22 2.02-0.37l2-0.47 4.01-0.92 4.01-0.93 3.96-1.12 3.96-1.13 1.98-0.56 1.94-0.66 7.8-2.64 7.66-3.01 1.91-0.75q0.94-0.42 1.88-0.85l3.75-1.69 3.75-1.7 3.66-1.87 3.66-1.87 1.84-0.94 1.78-1.02 7.14-4.1 6.92-4.44 1.73-1.12 1.68-1.19 3.35-2.38q1.68-1.19 3.35-2.4l3.24-2.54 3.23-2.54c0.54-0.43 1.09-0.84 1.61-1.28l1.55-1.35c2.07-1.8 4.17-3.58 6.21-5.41l5.95-5.67c7.78-7.74 14.99-16.04 21.56-24.83l4.77-6.71q0.3-0.42 0.59-0.84l0.56-0.87 1.11-1.73 2.22-3.46c1.53-2.28 2.84-4.69 4.22-7.07l2.05-3.56c0.35-0.59 0.66-1.21 0.97-1.82l0.94-1.83 1.87-3.66c0.62-1.22 1.28-2.43 1.82-3.69l3.39-7.5c0.29-0.62 0.53-1.26 0.78-1.9l0.76-1.91 1.51-3.83c1.06-2.53 1.87-5.16 2.76-7.75l1.32-3.9q0.34-0.97 0.6-1.97l0.56-1.97 1.13-3.96 0.56-1.98q0.14-0.5 0.28-0.99l0.23-1.01 1.85-8.01 0.23-1.01q0.1-0.5 0.19-1.01l0.36-2.02 0.72-4.05 0.36-2.03c0.12-0.67 0.26-1.35 0.33-2.03l0.52-4.08 0.52-4.08c0.08-0.68 0.19-1.36 0.25-2.04l0.15-2.06 0.63-8.2q0.12-4.11 0.22-8.23c0.1-2.74 0.07-5.48 0.07-8.23v-8.22-16.46-32.92-131.67-526.67h-82.55v526.67 131.67 32.92 16.46 8.22 4.12 1.03c0 0.2-0.01 0.29-0.01 0.39l-0.01 0.32-0.05 1.27q-0.07 2.53-0.11 5.06-0.23 2.51-0.4 5.02l-0.08 1.26c-0.04 0.42-0.11 0.83-0.16 1.25l-0.33 2.48-0.3 2.49c-0.03 0.42-0.13 0.83-0.21 1.24l-0.23 1.23-0.43 2.46-0.21 1.23q-0.05 0.31-0.11 0.62l-0.15 0.61q-0.59 2.42-1.12 4.86l-0.13 0.61q-0.08 0.3-0.18 0.6l-0.35 1.2-0.68 2.4-0.33 1.2q-0.15 0.61-0.36 1.2l-0.82 2.35c-0.55 1.57-0.99 3.18-1.67 4.7l-0.92 2.33-0.45 1.16c-0.15 0.39-0.28 0.78-0.47 1.16q-1.06 2.26-2.06 4.55c-0.31 0.77-0.73 1.5-1.11 2.24l-1.15 2.22-0.56 1.12c-0.18 0.38-0.36 0.76-0.58 1.11l-1.27 2.16c-0.84 1.44-1.6 2.93-2.56 4.31l-1.36 2.11-0.67 1.06-0.33 0.53q-0.18 0.26-0.36 0.51-1.49 2.03-2.92 4.1c-4.02 5.36-8.43 10.43-13.18 15.18q-1.84 1.72-3.64 3.48l-3.8 3.29-0.95 0.84c-0.31 0.28-0.66 0.51-0.99 0.78l-1.98 1.54-1.96 1.57-2.06 1.45-2.04 1.46-1.02 0.74-1.06 0.66q-2.12 1.34-4.22 2.73-2.19 1.21-4.35 2.48l-1.08 0.64-1.12 0.55-2.23 1.14-2.22 1.15-2.29 1.01-2.27 1.04q-0.56 0.27-1.13 0.52l-1.17 0.45q-2.33 0.89-4.64 1.84-2.38 0.76-4.73 1.58l-1.18 0.42-1.21 0.32-2.4 0.68-2.39 0.7-2.44 0.54-2.43 0.57-1.21 0.3c-0.41 0.09-0.83 0.14-1.23 0.21q-2.47 0.42-4.93 0.89-9.92 1.43-20.08 1.56-10.16-0.13-20.09-1.56-2.45-0.47-4.92-0.89c-0.41-0.07-0.83-0.12-1.23-0.21l-1.22-0.3-2.43-0.57-2.43-0.54-2.4-0.7-2.4-0.68-1.2-0.32-1.18-0.42q-2.36-0.82-4.73-1.58-2.32-0.95-4.64-1.84l-1.17-0.45q-0.57-0.25-1.14-0.52l-2.27-1.04-2.29-1.01-2.21-1.15-2.23-1.14-1.13-0.55-1.08-0.64q-2.16-1.27-4.35-2.48-2.09-1.39-4.22-2.73l-1.06-0.66-1.01-0.74-2.05-1.46-2.05-1.45-1.97-1.57-1.98-1.54c-0.33-0.27-0.67-0.5-0.99-0.78l-0.94-0.84-3.8-3.29q-1.8-1.76-3.64-3.48c-4.75-4.75-9.16-9.82-13.19-15.18q-1.43-2.07-2.91-4.1-0.19-0.25-0.37-0.51l-0.33-0.53-0.67-1.06-1.35-2.11c-0.96-1.38-1.73-2.87-2.57-4.31l-1.26-2.16c-0.23-0.35-0.4-0.73-0.59-1.11l-0.56-1.12-1.14-2.22c-0.38-0.74-0.81-1.47-1.11-2.24q-1.01-2.29-2.07-4.55c-0.19-0.38-0.32-0.77-0.47-1.16l-0.45-1.16-0.91-2.33c-0.68-1.52-1.13-3.13-1.68-4.7l-0.81-2.35q-0.22-0.59-0.36-1.2l-0.33-1.2-0.69-2.4-0.35-1.2q-0.09-0.3-0.17-0.6l-0.14-0.61q-0.53-2.44-1.12-4.86l-0.15-0.61q-0.06-0.31-0.1-0.62l-0.21-1.23-0.44-2.46-0.23-1.23c-0.07-0.41-0.18-0.82-0.21-1.24l-0.29-2.49-0.33-2.48c-0.05-0.42-0.13-0.83-0.16-1.25l-0.08-1.26q-0.17-2.51-0.4-5.02-0.04-2.53-0.12-5.06l-0.04-1.27-0.02-0.32c0-0.1 0-0.19 0-0.39v-1.03-4.12-8.22-16.46-32.92-131.67-526.67z"/>
						<path id="&lt;Path&gt;" class="s2" d="m976.97-2.31v526.67 131.67 32.92 16.46 8.22 4.12 1.03c0 0.2 0 0.29 0 0.39l0.02 0.32 0.04 1.27q0.08 2.53 0.12 5.06 0.23 2.51 0.4 5.02l0.08 1.26c0.03 0.42 0.11 0.83 0.16 1.25l0.33 2.48 0.29 2.49c0.03 0.42 0.14 0.83 0.21 1.24l0.23 1.23 0.44 2.46 0.21 1.23q0.04 0.31 0.1 0.62l0.15 0.61q0.59 2.42 1.12 4.86l0.14 0.61q0.08 0.3 0.17 0.6l0.35 1.2 0.69 2.4 0.33 1.2q0.14 0.61 0.36 1.2l0.81 2.35c0.55 1.57 1 3.18 1.68 4.7l0.91 2.33 0.45 1.16c0.15 0.39 0.28 0.78 0.47 1.16q1.06 2.26 2.07 4.55c0.3 0.77 0.73 1.5 1.11 2.24l1.14 2.22 0.56 1.12c0.19 0.38 0.36 0.76 0.59 1.11l1.26 2.16c0.84 1.44 1.61 2.93 2.57 4.31l1.35 2.11 0.67 1.06 0.33 0.53q0.18 0.26 0.37 0.51 1.48 2.03 2.91 4.1c4.03 5.36 8.44 10.43 13.19 15.18q1.84 1.72 3.64 3.48l3.8 3.29 0.94 0.84c0.32 0.28 0.66 0.51 0.99 0.78l1.98 1.54 1.97 1.57 2.05 1.45 2.05 1.46 1.01 0.74 1.06 0.66q2.13 1.34 4.22 2.73 2.19 1.21 4.35 2.48l1.08 0.64 1.13 0.55 2.23 1.14 2.21 1.15 2.29 1.01 2.27 1.04q0.57 0.27 1.14 0.52l1.17 0.45q2.32 0.89 4.64 1.84 2.37 0.76 4.73 1.58l1.18 0.42 1.2 0.32 2.4 0.68 2.4 0.7 2.43 0.54 2.43 0.57 1.22 0.3c0.4 0.09 0.82 0.14 1.23 0.21q2.47 0.42 4.92 0.89 9.93 1.43 20.09 1.56 10.16-0.13 20.08-1.56 2.46-0.47 4.93-0.89c0.4-0.07 0.82-0.12 1.23-0.21l1.21-0.3 2.43-0.57 2.44-0.54 2.39-0.7 2.4-0.68 1.21-0.32 1.18-0.42q2.35-0.82 4.73-1.58 2.31-0.95 4.64-1.84l1.17-0.45q0.57-0.25 1.13-0.52l2.27-1.04 2.29-1.01 2.22-1.15 2.23-1.14 1.12-0.55 1.08-0.64q2.16-1.27 4.35-2.48 2.1-1.39 4.22-2.73l1.06-0.66 1.02-0.74 2.04-1.46 2.06-1.45 1.96-1.57 1.98-1.54c0.33-0.27 0.68-0.5 0.99-0.78l0.95-0.84 3.8-3.29q1.8-1.76 3.64-3.48c4.75-4.75 9.16-9.82 13.18-15.18q1.43-2.07 2.92-4.1 0.18-0.25 0.36-0.51l0.33-0.53 0.67-1.06 1.36-2.11c0.96-1.38 1.72-2.87 2.56-4.31l1.27-2.16c0.22-0.35 0.4-0.73 0.58-1.11l0.56-1.12 1.15-2.22c0.38-0.74 0.8-1.47 1.11-2.24q1-2.29 2.06-4.55c0.19-0.38 0.32-0.77 0.47-1.16l0.45-1.16 0.92-2.33c0.68-1.52 1.12-3.13 1.67-4.7l0.82-2.35q0.21-0.59 0.36-1.2l0.33-1.2 0.68-2.4 0.35-1.2q0.1-0.3 0.18-0.6l0.13-0.61q0.53-2.44 1.12-4.86l0.15-0.61q0.06-0.31 0.11-0.62l0.21-1.23 0.43-2.46 0.23-1.23c0.08-0.41 0.18-0.82 0.21-1.24l0.3-2.49 0.33-2.48c0.05-0.42 0.12-0.83 0.16-1.25l0.08-1.26q0.17-2.51 0.4-5.02 0.04-2.53 0.11-5.06l0.05-1.27 0.01-0.32c0-0.1 0.01-0.19 0.01-0.39v-1.03-4.12-8.22-16.46-32.92-131.67-526.67h-82.55v526.67 131.67 32.92 16.46 8.22 4.12 1.03c0 0.22-0.01 0.24-0.01 0.27l-0.01 0.12-0.04 0.48q-0.06 0.95-0.02 1.9-0.14 0.92-0.17 1.84v0.47c-0.01 0.15-0.06 0.29-0.08 0.44q-0.08 0.45-0.14 0.9-0.05 0.44-0.07 0.9c0.01 0.15-0.05 0.29-0.08 0.44l-0.1 0.43q-0.09 0.43-0.16 0.87l-0.05 0.45q-0.01 0.11-0.02 0.22l-0.07 0.21q-0.26 0.84-0.4 1.71l-0.03 0.22q-0.03 0.1-0.07 0.21l-0.15 0.41q-0.13 0.42-0.24 0.84l-0.1 0.43q-0.02 0.22-0.12 0.42-0.17 0.4-0.31 0.82c-0.2 0.54-0.28 1.13-0.58 1.65q-0.18 0.4-0.33 0.82l-0.14 0.41c-0.04 0.14-0.07 0.29-0.15 0.41q-0.43 0.78-0.74 1.61c-0.08 0.29-0.27 0.53-0.41 0.79q-0.22 0.38-0.41 0.79l-0.18 0.4c-0.06 0.14-0.11 0.28-0.2 0.4q-0.26 0.37-0.48 0.76c-0.31 0.51-0.52 1.08-0.92 1.55q-0.25 0.37-0.48 0.76l-0.23 0.39-0.11 0.2q-0.06 0.09-0.14 0.18-0.58 0.7-1.06 1.48-2.23 2.89-4.81 5.53-0.7 0.6-1.32 1.28c-0.47 0.4-0.96 0.76-1.4 1.19l-0.33 0.32c-0.11 0.11-0.25 0.18-0.37 0.27q-0.38 0.26-0.73 0.55-0.36 0.29-0.7 0.6-0.38 0.24-0.76 0.5-0.38 0.25-0.73 0.53l-0.36 0.29-0.39 0.22q-0.79 0.45-1.51 1-0.82 0.38-1.57 0.87l-0.37 0.25-0.42 0.17q-0.4 0.19-0.79 0.4-0.39 0.21-0.78 0.44-0.42 0.15-0.82 0.32-0.41 0.18-0.8 0.38-0.19 0.11-0.39 0.21l-0.42 0.13q-0.83 0.28-1.62 0.67-0.86 0.21-1.67 0.54l-0.41 0.17-0.43 0.09q-0.42 0.09-0.84 0.22-0.42 0.13-0.83 0.28-0.44 0.07-0.87 0.16-0.43 0.09-0.85 0.21l-0.43 0.13c-0.14 0.04-0.29 0.03-0.44 0.05q-0.88 0.11-1.74 0.33-3.54 0.45-7.38 0.58c-2.57-0.09-5.01-0.28-7.38-0.58q-0.87-0.22-1.75-0.33c-0.14-0.02-0.3-0.01-0.44-0.05l-0.42-0.13q-0.43-0.12-0.86-0.21-0.43-0.09-0.86-0.16-0.41-0.15-0.83-0.28-0.42-0.13-0.85-0.22l-0.43-0.09-0.4-0.17q-0.82-0.33-1.67-0.54-0.79-0.39-1.63-0.67l-0.42-0.13q-0.19-0.1-0.39-0.21-0.39-0.2-0.8-0.38-0.4-0.17-0.82-0.32-0.38-0.23-0.77-0.44-0.39-0.21-0.8-0.4l-0.41-0.17-0.38-0.25q-0.75-0.49-1.57-0.87-0.72-0.55-1.5-1l-0.4-0.22-0.35-0.29q-0.36-0.28-0.73-0.53-0.38-0.26-0.77-0.5-0.34-0.31-0.69-0.6-0.36-0.29-0.73-0.55c-0.12-0.09-0.27-0.16-0.37-0.27l-0.33-0.32c-0.44-0.43-0.93-0.79-1.4-1.19q-0.62-0.68-1.33-1.28-2.58-2.64-4.81-5.53-0.48-0.78-1.06-1.48-0.07-0.09-0.14-0.18l-0.11-0.2-0.22-0.39q-0.23-0.39-0.49-0.76c-0.39-0.47-0.61-1.04-0.91-1.55q-0.23-0.39-0.48-0.76c-0.1-0.12-0.14-0.26-0.2-0.4l-0.19-0.4q-0.19-0.41-0.41-0.79c-0.14-0.26-0.33-0.5-0.4-0.79q-0.31-0.83-0.74-1.61c-0.09-0.12-0.11-0.27-0.16-0.41l-0.14-0.41q-0.15-0.42-0.33-0.82c-0.29-0.52-0.37-1.11-0.58-1.65q-0.14-0.42-0.31-0.82-0.09-0.2-0.12-0.42l-0.1-0.43q-0.1-0.42-0.24-0.84l-0.14-0.41q-0.04-0.11-0.08-0.21l-0.03-0.22q-0.13-0.87-0.39-1.71l-0.07-0.21q-0.02-0.11-0.03-0.22l-0.05-0.45q-0.06-0.44-0.15-0.87l-0.1-0.43c-0.03-0.15-0.09-0.29-0.09-0.44q-0.02-0.46-0.07-0.9-0.05-0.45-0.14-0.9c-0.02-0.15-0.07-0.29-0.07-0.44l-0.01-0.47q-0.02-0.92-0.17-1.84 0.04-0.95-0.01-1.9l-0.04-0.48-0.01-0.12c-0.01-0.03-0.01-0.05-0.01-0.27v-1.03-4.12-8.22-16.46-32.92-131.67-526.67z"/>
						<path id="&lt;Path&gt;" class="s3" d="m811.86-2.31v526.67 131.67 32.92 16.46 8.22 4.12 1.03l0.02 1.34 0.06 2.85q0.12 5.7 0.33 11.39 0.39 5.69 0.85 11.39l0.23 2.84c0.09 0.95 0.22 1.89 0.33 2.84l0.71 5.68 0.74 5.67c0.11 0.95 0.3 1.88 0.45 2.83l0.5 2.82 1.01 5.63 0.51 2.82q0.13 0.71 0.27 1.41l0.31 1.4q1.26 5.59 2.58 11.17l0.33 1.39q0.18 0.69 0.38 1.38l0.77 2.77 1.57 5.51 0.79 2.76q0.38 1.38 0.84 2.74l1.82 5.44c1.24 3.61 2.41 7.25 3.86 10.79l2.1 5.34 1.06 2.66c0.36 0.88 0.7 1.78 1.1 2.64q2.33 5.24 4.72 10.45c0.76 1.75 1.66 3.44 2.52 5.14l2.61 5.1 1.31 2.54c0.44 0.85 0.87 1.7 1.35 2.53l2.84 4.97c1.91 3.3 3.78 6.63 5.87 9.82l3.09 4.81 1.55 2.4 0.78 1.2q0.4 0.59 0.82 1.18 3.29 4.67 6.62 9.31c9.11 12.23 19.12 23.76 29.93 34.48q4.12 3.96 8.28 7.88c2.83 2.55 5.72 5.02 8.6 7.51l2.17 1.86c0.73 0.62 1.49 1.2 2.23 1.79l4.48 3.54 4.51 3.52q2.31 1.68 4.64 3.34l4.66 3.31 2.34 1.64 2.4 1.56q4.8 3.11 9.64 6.16 4.94 2.89 9.91 5.72l2.49 1.41 2.55 1.32 5.09 2.61q2.55 1.31 5.11 2.59l5.21 2.38 5.23 2.35q1.3 0.59 2.62 1.16l2.66 1.06q5.32 2.13 10.67 4.19 5.42 1.87 10.86 3.69l2.72 0.9 2.76 0.8 5.51 1.57 5.52 1.55 5.58 1.32 5.59 1.28 2.79 0.63c0.94 0.2 1.88 0.36 2.82 0.53q5.63 1.04 11.28 2.01c15.09 2.28 30.31 3.44 45.49 3.53 15.17-0.09 30.39-1.25 45.49-3.53q5.64-0.97 11.28-2.01c0.94-0.17 1.88-0.33 2.81-0.53l2.8-0.63 5.58-1.28 5.58-1.32 5.52-1.55 5.52-1.57 2.75-0.8 2.72-0.9q5.44-1.82 10.86-3.69 5.35-2.06 10.68-4.19l2.66-1.06q1.31-0.57 2.62-1.16l5.22-2.35 5.21-2.38q2.57-1.28 5.12-2.59l5.09-2.61 2.54-1.32 2.49-1.41q4.98-2.83 9.92-5.72 4.83-3.05 9.64-6.16l2.39-1.56 2.34-1.64 4.67-3.31q2.33-1.66 4.63-3.34l4.51-3.52 4.49-3.54c0.74-0.59 1.5-1.17 2.22-1.79l2.17-1.86c2.88-2.49 5.78-4.96 8.61-7.51q4.15-3.92 8.27-7.88c10.81-10.72 20.82-22.25 29.93-34.48q3.34-4.64 6.63-9.31 0.41-0.59 0.81-1.18l0.78-1.2 1.55-2.4 3.09-4.81c2.1-3.19 3.97-6.52 5.87-9.82l2.84-4.97c0.49-0.83 0.91-1.68 1.35-2.53l1.32-2.54 2.61-5.1c0.86-1.7 1.75-3.39 2.52-5.14q2.39-5.21 4.72-10.45c0.4-0.86 0.74-1.76 1.09-2.64l1.07-2.66 2.1-5.34c1.44-3.54 2.62-7.18 3.86-10.79l1.82-5.44q0.45-1.36 0.84-2.74l0.79-2.76 1.56-5.51 0.78-2.77q0.19-0.69 0.37-1.38l0.33-1.39q1.32-5.58 2.58-11.17l0.32-1.4q0.14-0.7 0.26-1.41l0.52-2.82 1.01-5.63 0.49-2.82c0.16-0.95 0.34-1.88 0.45-2.83l0.75-5.67 0.71-5.68c0.11-0.95 0.24-1.89 0.33-2.84l0.23-2.84q0.45-5.7 0.85-11.39 0.2-5.69 0.32-11.39l0.06-2.85 0.02-1.34v-1.03-4.12-8.22-16.46-32.92-131.67-526.67h-82.55v526.67 131.67 32.92 16.46 8.22c0 2.75 0.03 5.49-0.07 8.23q-0.1 4.12-0.22 8.23l-0.63 8.2-0.15 2.06c-0.06 0.68-0.17 1.36-0.25 2.04l-0.52 4.08-0.52 4.08c-0.07 0.68-0.21 1.36-0.33 2.03l-0.36 2.03-0.72 4.05-0.36 2.02q-0.09 0.51-0.19 1.01l-0.23 1.01-1.85 8.01-0.23 1.01q-0.14 0.49-0.28 0.99l-0.56 1.98-1.13 3.96-0.56 1.97q-0.26 1-0.6 1.97l-1.32 3.9c-0.89 2.59-1.7 5.22-2.76 7.75l-1.51 3.83-0.76 1.91c-0.25 0.64-0.49 1.28-0.78 1.9l-3.39 7.5c-0.54 1.26-1.2 2.47-1.82 3.69l-1.87 3.66-0.94 1.83c-0.31 0.61-0.62 1.23-0.97 1.82l-2.05 3.56c-1.38 2.38-2.69 4.79-4.22 7.07l-2.22 3.46-1.11 1.73-0.56 0.87q-0.29 0.42-0.59 0.84l-4.77 6.71c-6.57 8.79-13.78 17.09-21.56 24.83l-5.95 5.67c-2.04 1.83-4.14 3.61-6.21 5.41l-1.55 1.35c-0.52 0.44-1.07 0.85-1.61 1.28l-3.23 2.54-3.24 2.54q-1.67 1.21-3.35 2.4l-3.35 2.38-1.68 1.19-1.73 1.12-6.92 4.44-7.14 4.1-1.78 1.02-1.84 0.94-3.66 1.87-3.66 1.87-3.75 1.7-3.75 1.69q-0.94 0.43-1.88 0.85l-1.91 0.75-7.66 3.01-7.8 2.64-1.94 0.66-1.98 0.56-3.96 1.13-3.96 1.12-4.01 0.93-4.01 0.92-2 0.47c-0.67 0.15-1.35 0.25-2.02 0.37l-8.1 1.45c-10.86 1.62-21.82 2.45-32.79 2.54-10.98-0.09-21.94-0.92-32.79-2.54l-8.1-1.45c-0.68-0.12-1.36-0.22-2.02-0.37l-2.01-0.47-4.01-0.92-4.01-0.93-3.95-1.12-3.96-1.13-1.98-0.56-1.95-0.66-7.8-2.64-7.65-3.01-1.92-0.75q-0.94-0.42-1.87-0.85l-3.75-1.69-3.75-1.7-3.67-1.87-3.66-1.87-1.83-0.94-1.79-1.02-7.13-4.1-6.93-4.44-1.73-1.12-1.67-1.19-3.36-2.38q-1.68-1.19-3.35-2.4l-3.23-2.54-3.24-2.54c-0.53-0.43-1.08-0.84-1.6-1.28l-1.56-1.35c-2.06-1.8-4.16-3.58-6.2-5.41l-5.96-5.67c-7.78-7.74-14.99-16.04-21.56-24.83l-4.77-6.71q-0.3-0.42-0.59-0.84l-0.55-0.87-1.11-1.73-2.22-3.46c-1.53-2.28-2.85-4.69-4.22-7.07l-2.06-3.56c-0.35-0.59-0.65-1.21-0.96-1.82l-0.94-1.83-1.88-3.66c-0.62-1.22-1.28-2.43-1.81-3.69l-3.39-7.5c-0.3-0.62-0.53-1.26-0.79-1.9l-0.75-1.91-1.51-3.83c-1.07-2.53-1.88-5.16-2.77-7.75l-1.32-3.9q-0.33-0.97-0.6-1.97l-0.56-1.97-1.12-3.96-0.57-1.98q-0.14-0.5-0.27-0.99l-0.23-1.01-1.85-8.01-0.23-1.01q-0.1-0.5-0.19-1.01l-0.36-2.02-0.73-4.05-0.36-2.03c-0.11-0.67-0.26-1.35-0.33-2.03l-0.52-4.08-0.52-4.08c-0.08-0.68-0.18-1.36-0.24-2.04l-0.16-2.06-0.62-8.2q-0.13-4.11-0.22-8.23c-0.1-2.74-0.07-5.48-0.08-8.23v-8.22-16.46-32.92-131.67-526.67z"/>
						<path id="&lt;Path&gt;" class="s4" d="m729.31-2.31v526.67 131.67 32.92 16.46 8.22 4.12 1.03l0.02 1.66 0.07 3.64q0.14 7.27 0.42 14.55 0.48 7.29 1.08 14.57l0.31 3.64c0.11 1.21 0.27 2.42 0.41 3.63l0.91 7.27 0.96 7.27c0.15 1.21 0.38 2.41 0.58 3.62l0.62 3.62 1.29 7.22 0.67 3.61q0.17 0.9 0.35 1.8l0.4 1.8q1.59 7.17 3.3 14.32l0.43 1.79 0.48 1.77 0.98 3.54 2.01 7.08 1.03 3.53q0.5 1.77 1.07 3.51l2.33 6.98c1.58 4.64 3.12 9.3 4.95 13.84l2.69 6.85 1.37 3.41c0.46 1.13 0.91 2.27 1.41 3.39q2.97 6.72 6.05 13.39c1 2.24 2.12 4.41 3.22 6.59l3.34 6.54 1.69 3.25c0.57 1.09 1.13 2.18 1.74 3.23l3.63 6.38c2.44 4.23 4.86 8.48 7.52 12.58l3.95 6.16 2 3.08 1 1.53q0.52 0.76 1.04 1.5 4.19 6 8.48 11.93c11.65 15.66 24.46 30.41 38.31 44.13q5.25 5.08 10.59 10.08c3.61 3.26 7.31 6.44 11.01 9.62l2.78 2.37c0.93 0.79 1.89 1.53 2.84 2.3l5.74 4.53 5.78 4.49q2.95 2.16 5.93 4.29l5.97 4.23 3 2.1 3.06 2q6.15 4 12.35 7.88 6.32 3.72 12.7 7.34l3.2 1.79 3.25 1.7 6.53 3.36q3.27 1.67 6.55 3.3l6.68 3.07 6.7 3.01q1.68 0.75 3.36 1.47l3.41 1.38q6.82 2.74 13.69 5.35 6.94 2.43 13.92 4.74c18.69 5.96 37.81 10.54 57.14 13.58 19.34 2.94 38.82 4.42 58.2 4.51 19.38-0.09 38.85-1.57 58.19-4.51 19.33-3.04 38.46-7.62 57.14-13.58q6.98-2.31 13.92-4.74 6.87-2.61 13.69-5.35l3.41-1.38q1.69-0.72 3.36-1.47l6.71-3.01 6.67-3.07q3.29-1.63 6.56-3.3l6.52-3.36 3.26-1.7 3.19-1.79q6.38-3.62 12.7-7.34 6.21-3.88 12.35-7.88l3.06-2 3-2.1 5.98-4.23q2.98-2.13 5.93-4.29l5.77-4.49 5.74-4.53c0.95-0.77 1.92-1.51 2.85-2.3l2.78-2.37c3.69-3.18 7.39-6.36 11.01-9.62q5.33-5 10.59-10.08c13.84-13.72 26.65-28.47 38.3-44.13q4.29-5.93 8.48-11.93 0.53-0.74 1.04-1.5l1.01-1.53 1.99-3.08 3.95-6.16c2.67-4.1 5.09-8.35 7.53-12.58l3.62-6.38c0.62-1.05 1.17-2.14 1.74-3.23l1.69-3.25 3.34-6.54c1.1-2.18 2.23-4.35 3.23-6.59q3.08-6.67 6.04-13.39c0.51-1.12 0.95-2.26 1.41-3.39l1.37-3.41 2.69-6.85c1.83-4.54 3.38-9.2 4.96-13.84l2.32-6.98q0.58-1.74 1.08-3.51l1.02-3.53 2.01-7.08 0.98-3.54 0.48-1.77 0.43-1.79q1.72-7.15 3.31-14.32l0.39-1.8q0.18-0.9 0.35-1.8l0.67-3.61 1.3-7.22 0.62-3.62c0.2-1.21 0.43-2.41 0.58-3.62l0.96-7.27 0.9-7.27c0.14-1.21 0.3-2.42 0.42-3.63l0.3-3.64q0.6-7.28 1.08-14.57 0.29-7.28 0.43-14.55l0.06-3.64 0.02-1.66v-1.03-4.12-8.22-16.46-32.92-131.67-526.67h-82.55v526.67 131.67 32.92 16.46 8.22 4.12 1.03l-0.02 1.34-0.06 2.85q-0.12 5.7-0.32 11.39-0.4 5.69-0.85 11.39l-0.23 2.84c-0.09 0.95-0.22 1.89-0.33 2.84l-0.71 5.68-0.75 5.67c-0.11 0.95-0.29 1.88-0.45 2.83l-0.49 2.82-1.01 5.63-0.52 2.82q-0.12 0.71-0.26 1.41l-0.32 1.4q-1.26 5.59-2.58 11.17l-0.33 1.39q-0.18 0.69-0.37 1.38l-0.78 2.77-1.56 5.51-0.79 2.76q-0.39 1.38-0.84 2.74l-1.82 5.44c-1.24 3.61-2.42 7.25-3.86 10.79l-2.1 5.34-1.07 2.66c-0.35 0.88-0.69 1.78-1.09 2.64q-2.33 5.24-4.72 10.45c-0.77 1.75-1.66 3.44-2.52 5.14l-2.61 5.1-1.32 2.54c-0.44 0.85-0.86 1.7-1.35 2.53l-2.84 4.97c-1.9 3.3-3.77 6.63-5.87 9.82l-3.09 4.81-1.55 2.4-0.78 1.2q-0.4 0.59-0.81 1.18-3.29 4.67-6.63 9.31c-9.11 12.23-19.12 23.76-29.93 34.48q-4.12 3.96-8.27 7.88c-2.83 2.55-5.73 5.02-8.61 7.51l-2.17 1.86c-0.72 0.62-1.48 1.2-2.22 1.79l-4.49 3.54-4.51 3.52q-2.3 1.68-4.63 3.34l-4.67 3.31-2.34 1.64-2.39 1.56q-4.81 3.11-9.64 6.16-4.94 2.89-9.92 5.72l-2.49 1.41-2.54 1.32-5.09 2.61q-2.55 1.31-5.12 2.59l-5.21 2.38-5.22 2.35q-1.31 0.59-2.62 1.16l-2.66 1.06q-5.33 2.13-10.68 4.19-5.42 1.87-10.86 3.69l-2.72 0.9-2.75 0.8-5.52 1.57-5.52 1.55-5.58 1.32-5.58 1.28-2.8 0.63c-0.93 0.2-1.87 0.36-2.81 0.53q-5.64 1.04-11.28 2.01c-15.1 2.28-30.32 3.44-45.49 3.53-15.18-0.09-30.4-1.25-45.49-3.53q-5.65-0.97-11.28-2.01c-0.94-0.17-1.88-0.33-2.82-0.53l-2.79-0.63-5.59-1.28-5.58-1.32-5.52-1.55-5.51-1.57-2.76-0.8-2.72-0.9q-5.44-1.82-10.86-3.69-5.35-2.06-10.67-4.19l-2.66-1.06q-1.32-0.57-2.62-1.16l-5.23-2.35-5.21-2.38q-2.56-1.28-5.11-2.59l-5.09-2.61-2.55-1.32-2.49-1.41q-4.97-2.83-9.91-5.72-4.84-3.05-9.64-6.16l-2.4-1.56-2.34-1.64-4.66-3.31q-2.33-1.66-4.64-3.34l-4.51-3.52-4.48-3.54c-0.74-0.59-1.5-1.17-2.23-1.79l-2.17-1.86c-2.88-2.49-5.77-4.96-8.6-7.51q-4.16-3.92-8.28-7.88c-10.81-10.72-20.82-22.25-29.93-34.48q-3.33-4.64-6.62-9.31-0.42-0.59-0.82-1.18l-0.78-1.2-1.55-2.4-3.09-4.81c-2.09-3.19-3.96-6.52-5.87-9.82l-2.84-4.97c-0.48-0.83-0.91-1.68-1.35-2.53l-1.31-2.54-2.61-5.1c-0.86-1.7-1.76-3.39-2.52-5.14q-2.39-5.21-4.72-10.45c-0.4-0.86-0.74-1.76-1.1-2.64l-1.06-2.66-2.1-5.34c-1.45-3.54-2.62-7.18-3.86-10.79l-1.82-5.44q-0.46-1.36-0.84-2.74l-0.79-2.76-1.57-5.51-0.77-2.77q-0.2-0.69-0.38-1.38l-0.33-1.39q-1.32-5.58-2.58-11.17l-0.31-1.4q-0.14-0.7-0.27-1.41l-0.51-2.82-1.01-5.63-0.5-2.82c-0.15-0.95-0.34-1.88-0.45-2.83l-0.74-5.67-0.71-5.68c-0.11-0.95-0.24-1.89-0.33-2.84l-0.23-2.84q-0.46-5.7-0.85-11.39-0.21-5.69-0.33-11.39l-0.06-2.85-0.02-1.34v-1.03-4.12-8.22-16.46-32.92-131.67-526.67z"/>
					</g>
					<g id="&lt;Group&gt;">
						<path id="&lt;Path&gt;" class="s1" d="m-188.84 1659.16v-526.67-131.67-32.92-16.46-8.23c0-2.74-0.03-5.48 0.07-8.22q0.1-4.12 0.22-8.23l0.62-8.21 0.16-2.05c0.06-0.68 0.17-1.36 0.25-2.04l0.51-4.08 0.52-4.08c0.07-0.69 0.22-1.36 0.33-2.03l0.37-2.03 0.72-4.05 0.36-2.02q0.09-0.51 0.19-1.02l0.23-1 1.85-8.02 0.23-1q0.13-0.49 0.28-0.99l0.56-1.98 1.12-3.96 0.57-1.97q0.26-1 0.59-1.97l1.32-3.9c0.9-2.59 1.71-5.22 2.77-7.75l1.51-3.83 0.75-1.91c0.26-0.64 0.49-1.28 0.79-1.9l3.39-7.5c0.54-1.26 1.2-2.47 1.81-3.69l1.88-3.66 0.94-1.83c0.31-0.61 0.61-1.23 0.97-1.82l2.05-3.56c1.37-2.38 2.69-4.79 4.22-7.07l2.22-3.46 1.11-1.73 0.55-0.87q0.29-0.42 0.6-0.84l4.76-6.71c6.57-8.79 13.78-17.09 21.56-24.83l5.96-5.68c2.04-1.82 4.14-3.6 6.2-5.4l1.56-1.35c0.52-0.45 1.07-0.85 1.61-1.28l3.23-2.54 3.24-2.54q1.66-1.21 3.34-2.4l3.36-2.38 1.67-1.19 1.73-1.12 6.93-4.44 7.14-4.1 1.78-1.02 1.83-0.94 3.66-1.88 3.67-1.87 3.75-1.69 3.75-1.7q0.93-0.42 1.88-0.84l1.91-0.75 7.66-3.01 7.79-2.64 1.95-0.66 1.98-0.56 3.96-1.13 3.96-1.12 4-0.93 4.01-0.93 2.01-0.46c0.67-0.15 1.35-0.25 2.02-0.38l8.1-1.44c10.86-1.62 21.82-2.45 32.79-2.54 10.97 0.09 21.93 0.92 32.79 2.54l8.1 1.44c0.67 0.13 1.35 0.23 2.02 0.38l2.01 0.46 4 0.93 4.01 0.93 3.96 1.12 3.96 1.13 1.98 0.56 1.95 0.66 7.79 2.64 7.66 3.01 1.91 0.75q0.95 0.42 1.88 0.84l3.75 1.7 3.75 1.69 3.66 1.87 3.67 1.88 1.83 0.94 1.78 1.02 7.14 4.1 6.93 4.44 1.73 1.12 1.67 1.19 3.35 2.38q1.69 1.19 3.35 2.4l3.24 2.54 3.23 2.54c0.54 0.43 1.09 0.83 1.61 1.28l1.56 1.35c2.06 1.8 4.16 3.58 6.2 5.4l5.96 5.68c7.78 7.74 14.99 16.04 21.55 24.83l4.77 6.71q0.3 0.42 0.59 0.84l0.56 0.87 1.11 1.73 2.22 3.46c1.53 2.28 2.85 4.69 4.22 7.07l2.05 3.56c0.36 0.59 0.66 1.21 0.97 1.82l0.94 1.83 1.87 3.66c0.62 1.22 1.28 2.43 1.82 3.69l3.39 7.5c0.3 0.62 0.53 1.26 0.79 1.9l0.75 1.91 1.51 3.83c1.06 2.53 1.87 5.16 2.77 7.75l1.31 3.9q0.34 0.97 0.6 1.97l0.57 1.97 1.12 3.96 0.56 1.98q0.15 0.5 0.28 0.99l0.23 1 1.85 8.02 0.23 1q0.1 0.51 0.19 1.02l0.36 2.02 0.72 4.05 0.36 2.03c0.12 0.67 0.26 1.34 0.34 2.03l0.51 4.08 0.52 4.08c0.08 0.68 0.19 1.36 0.25 2.04l0.16 2.05 0.62 8.21q0.12 4.11 0.22 8.23c0.1 2.74 0.07 5.48 0.07 8.22v8.23 16.46 32.92 131.67 526.67h82.55v-526.67-131.67-32.92-16.46-8.23-4.11-1.03l-0.02-1.34-0.06-2.85q-0.11-5.7-0.32-11.39-0.39-5.69-0.85-11.39l-0.23-2.84c-0.09-0.95-0.22-1.89-0.33-2.84l-0.71-5.68-0.74-5.67c-0.11-0.95-0.3-1.88-0.46-2.83l-0.49-2.82-1.01-5.64-0.51-2.81q-0.13-0.71-0.27-1.41l-0.31-1.4q-1.26-5.59-2.58-11.17l-0.33-1.39q-0.19-0.69-0.38-1.38l-0.77-2.77-1.57-5.51-0.79-2.76q-0.39-1.38-0.84-2.74l-1.82-5.44c-1.24-3.61-2.42-7.25-3.86-10.79l-2.1-5.34-1.06-2.66c-0.36-0.88-0.7-1.78-1.1-2.64q-2.33-5.24-4.72-10.45c-0.77-1.75-1.66-3.44-2.52-5.14l-2.61-5.1-1.31-2.54c-0.44-0.85-0.87-1.7-1.36-2.53l-2.83-4.97c-1.91-3.3-3.78-6.63-5.88-9.82l-3.08-4.81-1.56-2.4-0.77-1.2q-0.41-0.59-0.82-1.18-3.29-4.67-6.63-9.32c-9.11-12.22-19.12-23.75-29.93-34.47q-4.11-3.97-8.27-7.88c-2.83-2.55-5.73-5.02-8.61-7.51l-2.17-1.86c-0.72-0.62-1.48-1.2-2.22-1.79l-4.49-3.54-4.5-3.52q-2.31-1.68-4.64-3.34l-4.67-3.31-2.33-1.64-2.4-1.56q-4.8-3.11-9.64-6.16-4.94-2.89-9.92-5.72l-2.49-1.41-2.54-1.32-5.09-2.61q-2.55-1.31-5.11-2.59l-5.22-2.38-5.22-2.35q-1.31-0.59-2.62-1.16l-2.66-1.07q-5.33-2.12-10.68-4.18-5.42-1.87-10.86-3.69l-2.72-0.9-2.75-0.8-5.51-1.57-5.53-1.55-5.57-1.32-5.59-1.28-2.8-0.63c-0.93-0.21-1.87-0.36-2.81-0.54q-5.63-1.03-11.28-2c-15.1-2.28-30.31-3.44-45.49-3.53-15.18 0.09-30.4 1.25-45.49 3.53q-5.65 0.97-11.28 2c-0.94 0.18-1.88 0.33-2.81 0.54l-2.8 0.63-5.59 1.28-5.57 1.32-5.53 1.55-5.51 1.57-2.75 0.8-2.73 0.9q-5.44 1.82-10.85 3.69-5.36 2.06-10.68 4.18l-2.66 1.07q-1.31 0.57-2.62 1.16l-5.23 2.35-5.21 2.38q-2.56 1.28-5.11 2.59l-5.09 2.61-2.54 1.32-2.49 1.41q-4.98 2.83-9.92 5.72-4.84 3.05-9.64 6.16l-2.4 1.56-2.34 1.64-4.66 3.31q-2.33 1.66-4.64 3.34l-4.5 3.52-4.49 3.54c-0.74 0.59-1.5 1.17-2.23 1.79l-2.16 1.86c-2.88 2.49-5.78 4.96-8.61 7.51q-4.16 3.91-8.27 7.88c-10.82 10.72-20.83 22.25-29.93 34.47q-3.34 4.65-6.63 9.32-0.41 0.59-0.82 1.18l-0.77 1.2-1.56 2.4-3.08 4.81c-2.1 3.19-3.97 6.52-5.88 9.82l-2.84 4.97c-0.48 0.83-0.91 1.68-1.35 2.53l-1.31 2.54-2.61 5.1c-0.86 1.7-1.75 3.39-2.52 5.14q-2.39 5.21-4.72 10.45c-0.4 0.86-0.74 1.76-1.1 2.64l-1.06 2.66-2.1 5.34c-1.45 3.54-2.62 7.18-3.86 10.79l-1.82 5.44q-0.46 1.36-0.84 2.74l-0.79 2.76-1.57 5.51-0.77 2.77q-0.19 0.69-0.38 1.38l-0.33 1.39q-1.32 5.58-2.58 11.17l-0.31 1.4q-0.14 0.7-0.27 1.41l-0.51 2.81-1.01 5.64-0.49 2.82c-0.16 0.95-0.35 1.88-0.46 2.83l-0.74 5.67-0.71 5.68c-0.11 0.95-0.24 1.89-0.33 2.84l-0.23 2.84q-0.46 5.7-0.85 11.39-0.21 5.69-0.33 11.39l-0.05 2.85-0.03 1.34v1.03 4.11 8.23 16.46 32.92 131.67 526.67z"/>
						<path id="&lt;Path&gt;" class="s2" d="m-271.4 1659.16v-526.67-131.67-32.92-16.46-8.23-4.11-1.03l0.03-1.34 0.05-2.85q0.12-5.7 0.33-11.39 0.39-5.69 0.85-11.39l0.23-2.84c0.09-0.95 0.22-1.89 0.33-2.84l0.71-5.68 0.74-5.67c0.11-0.95 0.3-1.88 0.46-2.83l0.49-2.82 1.01-5.64 0.51-2.81q0.13-0.71 0.27-1.41l0.31-1.4q1.26-5.59 2.58-11.17l0.33-1.39q0.19-0.69 0.38-1.38l0.77-2.77 1.57-5.51 0.79-2.76q0.38-1.38 0.84-2.74l1.82-5.44c1.24-3.61 2.41-7.25 3.86-10.79l2.1-5.34 1.06-2.66c0.36-0.88 0.7-1.78 1.1-2.64q2.33-5.24 4.72-10.45c0.77-1.75 1.66-3.44 2.52-5.14l2.61-5.1 1.31-2.54c0.44-0.85 0.87-1.7 1.35-2.53l2.84-4.97c1.91-3.3 3.78-6.63 5.88-9.82l3.08-4.81 1.56-2.4 0.77-1.2q0.41-0.59 0.82-1.18 3.29-4.67 6.63-9.32c9.1-12.22 19.11-23.75 29.93-34.47q4.11-3.97 8.27-7.88c2.83-2.55 5.73-5.02 8.61-7.51l2.16-1.86c0.73-0.62 1.49-1.2 2.23-1.79l4.49-3.54 4.5-3.52q2.31-1.68 4.64-3.34l4.66-3.31 2.34-1.64 2.4-1.56q4.8-3.11 9.64-6.16 4.94-2.89 9.92-5.72l2.49-1.41 2.54-1.32 5.09-2.61q2.55-1.31 5.11-2.59l5.21-2.38 5.23-2.35q1.31-0.59 2.62-1.16l2.66-1.07q5.32-2.12 10.68-4.18 5.41-1.87 10.85-3.69l2.73-0.9 2.75-0.8 5.51-1.57 5.53-1.55 5.57-1.32 5.59-1.28 2.8-0.63c0.93-0.21 1.87-0.36 2.81-0.54q5.63-1.03 11.28-2c15.09-2.28 30.31-3.44 45.49-3.53 15.18 0.09 30.39 1.25 45.49 3.53q5.65 0.97 11.28 2c0.94 0.18 1.88 0.33 2.81 0.54l2.8 0.63 5.59 1.28 5.57 1.32 5.53 1.55 5.51 1.57 2.75 0.8 2.72 0.9q5.44 1.82 10.86 3.69 5.35 2.06 10.68 4.18l2.66 1.07q1.31 0.57 2.62 1.16l5.22 2.35 5.22 2.38q2.56 1.28 5.11 2.59l5.09 2.61 2.54 1.32 2.49 1.41q4.98 2.83 9.92 5.72 4.84 3.05 9.64 6.16l2.4 1.56 2.33 1.64 4.67 3.31q2.33 1.66 4.64 3.34l4.5 3.52 4.49 3.54c0.74 0.59 1.5 1.17 2.22 1.79l2.17 1.86c2.88 2.49 5.78 4.96 8.61 7.51q4.16 3.91 8.27 7.88c10.81 10.72 20.82 22.25 29.93 34.47q3.34 4.65 6.63 9.32 0.41 0.59 0.82 1.18l0.77 1.2 1.56 2.4 3.08 4.81c2.1 3.19 3.97 6.52 5.88 9.82l2.83 4.97c0.49 0.83 0.92 1.68 1.36 2.53l1.31 2.54 2.61 5.1c0.86 1.7 1.75 3.39 2.52 5.14q2.39 5.21 4.72 10.45c0.4 0.86 0.74 1.76 1.1 2.64l1.06 2.66 2.1 5.34c1.44 3.54 2.62 7.18 3.86 10.79l1.82 5.44q0.45 1.36 0.84 2.74l0.79 2.76 1.57 5.51 0.77 2.77q0.19 0.69 0.38 1.38l0.33 1.39q1.32 5.58 2.58 11.17l0.31 1.4q0.14 0.7 0.27 1.41l0.51 2.81 1.01 5.64 0.49 2.82c0.16 0.95 0.35 1.88 0.46 2.83l0.74 5.67 0.71 5.68c0.11 0.95 0.24 1.89 0.33 2.84l0.23 2.84q0.46 5.7 0.85 11.39 0.21 5.69 0.32 11.39l0.06 2.85 0.02 1.34v1.03 4.11 8.23 16.46 32.92 131.67 526.67h82.56v-526.67-131.67-32.92-16.46-8.23-4.11-1.03l-0.03-1.66-0.06-3.64q-0.14-7.27-0.43-14.55-0.47-7.29-1.07-14.57l-0.31-3.64c-0.12-1.21-0.28-2.42-0.42-3.63l-0.9-7.27-0.96-7.27c-0.15-1.21-0.38-2.41-0.58-3.62l-0.62-3.62-1.3-7.22-0.67-3.61q-0.16-0.9-0.34-1.8l-0.4-1.8q-1.59-7.17-3.31-14.32l-0.43-1.79-0.48-1.77-0.98-3.54-2-7.08-1.03-3.53q-0.5-1.77-1.08-3.51l-2.32-6.98c-1.58-4.64-3.12-9.3-4.95-13.84l-2.7-6.85-1.36-3.41c-0.47-1.13-0.91-2.27-1.42-3.39q-2.96-6.72-6.04-13.39c-1-2.24-2.13-4.41-3.22-6.59l-3.35-6.54-1.69-3.25c-0.57-1.09-1.12-2.18-1.73-3.24l-3.63-6.37c-2.44-4.23-4.86-8.48-7.53-12.58l-3.95-6.17-1.99-3.07-1-1.53q-0.52-0.76-1.05-1.5-4.19-6.01-8.48-11.93c-11.65-15.66-24.46-30.41-38.3-44.13q-5.25-5.08-10.59-10.08c-3.62-3.26-7.31-6.44-11.01-9.62l-2.78-2.37c-0.93-0.79-1.9-1.53-2.84-2.3l-5.74-4.53-5.78-4.49q-2.95-2.17-5.93-4.29l-5.97-4.23-3-2.1-3.07-2q-6.14-4-12.35-7.88-6.31-3.73-12.7-7.34l-3.19-1.8-3.25-1.69-6.53-3.36q-3.27-1.67-6.56-3.3l-6.67-3.07-6.7-3.01q-1.68-0.75-3.37-1.47l-3.4-1.38q-6.82-2.74-13.7-5.35-6.94-2.43-13.92-4.75c-18.68-5.95-37.8-10.53-57.14-13.57-19.33-2.94-38.81-4.42-58.19-4.51-19.38 0.09-38.86 1.57-58.2 4.51-19.33 3.04-38.45 7.62-57.13 13.57q-6.99 2.32-13.93 4.75-6.87 2.61-13.69 5.35l-3.41 1.38q-1.68 0.72-3.36 1.47l-6.7 3.01-6.67 3.07q-3.29 1.63-6.56 3.3l-6.53 3.36-3.25 1.69-3.2 1.8q-6.38 3.61-12.69 7.34-6.21 3.88-12.35 7.88l-3.07 2-3 2.1-5.97 4.23q-2.98 2.12-5.93 4.29l-5.78 4.49-5.74 4.53c-0.95 0.77-1.91 1.51-2.84 2.3l-2.78 2.37c-3.7 3.18-7.39 6.36-11.01 9.62q-5.34 5-10.59 10.08c-13.84 13.72-26.65 28.47-38.3 44.13q-4.29 5.92-8.49 11.93-0.52 0.74-1.04 1.5l-1 1.53-1.99 3.07-3.96 6.17c-2.66 4.1-5.08 8.35-7.52 12.58l-3.63 6.37c-0.61 1.06-1.17 2.15-1.73 3.24l-1.69 3.25-3.35 6.54c-1.09 2.18-2.22 4.35-3.22 6.59q-3.08 6.67-6.04 13.39c-0.51 1.12-0.96 2.26-1.42 3.39l-1.37 3.41-2.69 6.85c-1.83 4.54-3.37 9.2-4.95 13.84l-2.32 6.98q-0.58 1.74-1.08 3.51l-1.03 3.53-2 7.08-0.98 3.54-0.48 1.77-0.43 1.79q-1.72 7.15-3.31 14.32l-0.4 1.8q-0.18 0.9-0.34 1.8l-0.67 3.61-1.3 7.22-0.62 3.62c-0.2 1.21-0.43 2.41-0.58 3.62l-0.96 7.27-0.9 7.27c-0.14 1.21-0.3 2.42-0.42 3.63l-0.31 3.64q-0.6 7.28-1.07 14.57-0.29 7.28-0.43 14.55l-0.07 3.64-0.02 1.66v1.03 4.11 8.23 16.46 32.92 131.67 526.67z"/>
						<path id="&lt;Path&gt;" class="s3" d="m-106.29 1659.16v-526.67-131.67-32.92-16.46-8.23-4.11-1.03c0-0.2 0-0.29 0.01-0.39l0.01-0.32 0.04-1.27q0.08-2.53 0.12-5.06 0.23-2.51 0.4-5.02l0.08-1.26c0.03-0.42 0.11-0.83 0.16-1.25l0.33-2.48 0.3-2.49c0.03-0.42 0.13-0.83 0.2-1.24l0.23-1.23 0.44-2.46 0.21-1.23q0.05-0.31 0.1-0.62l0.15-0.61q0.6-2.42 1.13-4.86l0.13-0.61q0.08-0.3 0.17-0.6l0.36-1.2 0.68-2.4 0.33-1.2q0.15-0.61 0.36-1.2l0.82-2.35c0.54-1.57 0.99-3.18 1.67-4.7l0.92-2.33 0.44-1.16c0.16-0.39 0.28-0.79 0.47-1.16q1.07-2.26 2.07-4.55c0.31-0.77 0.73-1.5 1.11-2.24l1.14-2.22 0.56-1.12c0.19-0.38 0.36-0.76 0.59-1.11l1.26-2.16c0.84-1.45 1.61-2.93 2.57-4.31l1.36-2.11 0.66-1.06 0.33-0.53q0.18-0.26 0.37-0.51 1.48-2.03 2.91-4.1c4.03-5.36 8.44-10.43 13.19-15.18q1.84-1.72 3.64-3.48l3.8-3.29 0.94-0.84c0.32-0.28 0.66-0.51 0.99-0.78l1.99-1.54 1.96-1.57 2.06-1.45 2.04-1.46 1.01-0.74 1.07-0.67q2.12-1.33 4.21-2.72 2.2-1.21 4.36-2.48l1.08-0.64 1.12-0.55 2.23-1.14 2.22-1.15 2.28-1.01 2.28-1.04q0.56-0.27 1.13-0.52l1.17-0.45q2.33-0.89 4.64-1.84 2.37-0.76 4.73-1.59l1.18-0.41 1.2-0.32 2.4-0.68 2.4-0.7 2.44-0.54 2.43-0.57 1.21-0.3c0.41-0.09 0.82-0.14 1.23-0.22q2.47-0.41 4.93-0.88 9.92-1.43 20.08-1.56 10.16 0.13 20.08 1.56 2.46 0.47 4.93 0.88c0.41 0.08 0.82 0.13 1.23 0.22l1.21 0.3 2.43 0.57 2.44 0.54 2.39 0.7 2.41 0.68 1.2 0.32 1.18 0.41q2.35 0.83 4.73 1.59 2.31 0.95 4.64 1.84l1.17 0.45q0.57 0.25 1.13 0.52l2.28 1.04 2.28 1.01 2.22 1.15 2.23 1.14 1.12 0.55 1.08 0.64q2.16 1.27 4.35 2.48 2.1 1.39 4.22 2.72l1.06 0.67 1.02 0.74 2.04 1.46 2.06 1.45 1.96 1.57 1.99 1.54c0.32 0.27 0.67 0.5 0.99 0.78l0.94 0.84 3.8 3.29q1.8 1.76 3.64 3.48c4.75 4.75 9.16 9.82 13.19 15.18q1.43 2.07 2.91 4.1 0.19 0.25 0.36 0.51l0.34 0.53 0.66 1.06 1.36 2.11c0.96 1.38 1.72 2.86 2.57 4.31l1.26 2.16c0.23 0.35 0.4 0.73 0.59 1.11l0.56 1.12 1.14 2.22c0.38 0.74 0.8 1.47 1.11 2.24q1 2.29 2.06 4.55c0.19 0.37 0.32 0.77 0.48 1.16l0.44 1.16 0.92 2.33c0.68 1.52 1.13 3.13 1.67 4.7l0.82 2.35q0.21 0.59 0.36 1.2l0.33 1.2 0.68 2.4 0.36 1.2q0.09 0.3 0.17 0.6l0.13 0.61q0.53 2.44 1.13 4.86l0.14 0.61q0.06 0.31 0.11 0.62l0.21 1.23 0.44 2.46 0.23 1.23c0.07 0.41 0.17 0.82 0.2 1.24l0.3 2.49 0.33 2.48c0.05 0.42 0.13 0.83 0.16 1.25l0.08 1.26q0.17 2.51 0.4 5.02 0.04 2.53 0.11 5.06l0.05 1.27 0.01 0.32c0.01 0.1 0.01 0.19 0.01 0.39v1.03 4.11 8.23 16.46 32.92 131.67 526.67h82.55v-526.67-131.67-32.92-16.46-8.23c0-2.74 0.03-5.48-0.07-8.22q-0.1-4.12-0.22-8.23l-0.62-8.21-0.16-2.05c-0.06-0.68-0.17-1.36-0.25-2.04l-0.52-4.08-0.51-4.08c-0.08-0.69-0.22-1.36-0.34-2.03l-0.36-2.03-0.72-4.05-0.36-2.02q-0.09-0.51-0.19-1.02l-0.23-1-1.85-8.02-0.23-1q-0.13-0.49-0.28-0.99l-0.56-1.98-1.12-3.96-0.57-1.97q-0.26-1-0.6-1.97l-1.31-3.9c-0.9-2.59-1.71-5.22-2.77-7.75l-1.51-3.83-0.75-1.91c-0.26-0.64-0.49-1.28-0.79-1.9l-3.39-7.5c-0.54-1.26-1.2-2.47-1.82-3.69l-1.87-3.66-0.94-1.83c-0.31-0.61-0.61-1.23-0.97-1.82l-2.05-3.56c-1.37-2.38-2.69-4.79-4.22-7.07l-2.22-3.46-1.11-1.73-0.56-0.87q-0.29-0.42-0.59-0.84l-4.77-6.71c-6.56-8.79-13.77-17.09-21.55-24.83l-5.96-5.68c-2.04-1.82-4.14-3.6-6.2-5.4l-1.56-1.35c-0.52-0.45-1.07-0.85-1.61-1.28l-3.23-2.54-3.24-2.54q-1.66-1.21-3.35-2.4l-3.35-2.38-1.67-1.19-1.73-1.12-6.93-4.44-7.14-4.1-1.78-1.02-1.83-0.94-3.67-1.88-3.66-1.87-3.75-1.69-3.75-1.7q-0.93-0.42-1.88-0.84l-1.91-0.75-7.66-3.01-7.79-2.64-1.95-0.66-1.98-0.56-3.96-1.13-3.96-1.12-4.01-0.93-4-0.93-2.01-0.46c-0.67-0.15-1.35-0.25-2.02-0.38l-8.1-1.44c-10.86-1.62-21.82-2.45-32.79-2.54-10.97 0.09-21.93 0.92-32.79 2.54l-8.1 1.44c-0.67 0.13-1.35 0.23-2.02 0.38l-2.01 0.46-4.01 0.93-4 0.93-3.96 1.12-3.96 1.13-1.98 0.56-1.95 0.66-7.79 2.64-7.66 3.01-1.91 0.75q-0.95 0.42-1.88 0.84l-3.75 1.7-3.75 1.69-3.67 1.87-3.66 1.88-1.83 0.94-1.78 1.02-7.14 4.1-6.93 4.44-1.73 1.12-1.67 1.19-3.36 2.38q-1.68 1.19-3.34 2.4l-3.24 2.54-3.23 2.54c-0.54 0.43-1.09 0.83-1.61 1.28l-1.56 1.35c-2.06 1.8-4.16 3.58-6.2 5.4l-5.96 5.68c-7.78 7.74-14.99 16.04-21.56 24.83l-4.76 6.71q-0.31 0.42-0.6 0.84l-0.55 0.87-1.11 1.73-2.22 3.46c-1.53 2.28-2.85 4.69-4.22 7.07l-2.05 3.56c-0.36 0.59-0.66 1.21-0.97 1.82l-0.94 1.83-1.88 3.66c-0.61 1.22-1.27 2.43-1.81 3.69l-3.39 7.5c-0.3 0.62-0.53 1.26-0.79 1.9l-0.75 1.91-1.51 3.83c-1.06 2.53-1.87 5.16-2.77 7.75l-1.32 3.9q-0.33 0.97-0.59 1.97l-0.57 1.97-1.12 3.96-0.56 1.98q-0.15 0.5-0.28 0.99l-0.23 1-1.85 8.02-0.23 1q-0.1 0.51-0.19 1.02l-0.36 2.02-0.72 4.05-0.37 2.03c-0.11 0.67-0.26 1.34-0.33 2.03l-0.52 4.08-0.51 4.08c-0.08 0.68-0.19 1.36-0.25 2.04l-0.16 2.05-0.62 8.21q-0.12 4.11-0.22 8.23c-0.1 2.74-0.07 5.48-0.07 8.22v8.23 16.46 32.92 131.67 526.67z"/>
						<path id="&lt;Path&gt;" class="s4" d="m-23.74 1659.16v-526.67-131.67-32.92-16.46-8.23-4.11-1.03c0-0.22 0-0.24 0.01-0.27l0.01-0.12 0.04-0.48q0.05-0.95 0.01-1.9 0.15-0.92 0.17-1.84l0.01-0.47c0.01-0.15 0.05-0.29 0.08-0.44q0.08-0.45 0.13-0.9 0.06-0.44 0.08-0.9c-0.01-0.15 0.05-0.29 0.08-0.44l0.1-0.43q0.09-0.43 0.15-0.87l0.06-0.45q0-0.11 0.02-0.22l0.07-0.21q0.26-0.84 0.39-1.71l0.04-0.22q0.03-0.1 0.07-0.21l0.14-0.41q0.14-0.42 0.24-0.84l0.1-0.43q0.03-0.22 0.12-0.42 0.17-0.4 0.32-0.82c0.2-0.54 0.28-1.14 0.58-1.65q0.17-0.4 0.32-0.82l0.14-0.41c0.05-0.14 0.08-0.29 0.16-0.41q0.43-0.78 0.74-1.61c0.08-0.29 0.27-0.53 0.4-0.79q0.22-0.39 0.41-0.79l0.19-0.4c0.06-0.14 0.1-0.28 0.2-0.4q0.25-0.37 0.48-0.76c0.31-0.51 0.52-1.08 0.91-1.55q0.26-0.37 0.49-0.76l0.23-0.39 0.1-0.2q0.07-0.09 0.15-0.18 0.58-0.7 1.05-1.48 2.24-2.89 4.82-5.53 0.7-0.6 1.32-1.28c0.47-0.4 0.96-0.76 1.4-1.19l0.33-0.32c0.11-0.11 0.25-0.18 0.37-0.27q0.37-0.26 0.73-0.55 0.36-0.29 0.69-0.6 0.39-0.24 0.77-0.5 0.37-0.25 0.73-0.53l0.36-0.29 0.39-0.22q0.79-0.45 1.51-1 0.81-0.38 1.57-0.87l0.37-0.25 0.41-0.18q0.41-0.18 0.8-0.39 0.39-0.21 0.77-0.44 0.42-0.15 0.83-0.32 0.4-0.18 0.79-0.38 0.2-0.11 0.4-0.21l0.42-0.13q0.83-0.29 1.62-0.68 0.85-0.2 1.67-0.53l0.4-0.17 0.43-0.09q0.43-0.09 0.85-0.22 0.42-0.13 0.83-0.28 0.44-0.07 0.87-0.16 0.43-0.09 0.85-0.21l0.42-0.13c0.14-0.04 0.3-0.03 0.44-0.06q0.89-0.1 1.75-0.32c2.37-0.3 4.81-0.49 7.38-0.58 2.57 0.09 5.01 0.28 7.38 0.58q0.86 0.22 1.75 0.32c0.14 0.03 0.3 0.02 0.44 0.06l0.42 0.13q0.42 0.12 0.85 0.21 0.43 0.09 0.87 0.16 0.41 0.15 0.83 0.28 0.42 0.13 0.85 0.22l0.43 0.09 0.4 0.17q0.81 0.33 1.67 0.53 0.79 0.39 1.62 0.68l0.42 0.13q0.2 0.1 0.39 0.21 0.4 0.2 0.8 0.38 0.41 0.17 0.83 0.32 0.38 0.23 0.77 0.44 0.39 0.21 0.8 0.39l0.41 0.18 0.37 0.25q0.76 0.49 1.57 0.87 0.72 0.55 1.51 1l0.39 0.22 0.36 0.29q0.36 0.28 0.73 0.53 0.38 0.26 0.77 0.5 0.33 0.31 0.69 0.6 0.35 0.29 0.73 0.55c0.12 0.09 0.26 0.16 0.37 0.27l0.33 0.32c0.44 0.43 0.93 0.79 1.4 1.19q0.62 0.68 1.32 1.28 2.58 2.64 4.82 5.53 0.47 0.78 1.05 1.48 0.08 0.09 0.14 0.18l0.11 0.2 0.23 0.39q0.23 0.39 0.49 0.76c0.39 0.47 0.6 1.04 0.91 1.55q0.23 0.39 0.48 0.76c0.1 0.12 0.14 0.26 0.2 0.4l0.18 0.4q0.2 0.4 0.41 0.79c0.14 0.26 0.33 0.5 0.41 0.79q0.31 0.83 0.74 1.61c0.08 0.12 0.11 0.27 0.16 0.41l0.14 0.41q0.15 0.42 0.32 0.82c0.3 0.51 0.38 1.11 0.58 1.65q0.14 0.42 0.32 0.82 0.09 0.2 0.12 0.42l0.09 0.43q0.11 0.42 0.25 0.84l0.14 0.41q0.04 0.11 0.07 0.21l0.04 0.22q0.13 0.87 0.39 1.71l0.07 0.21q0.02 0.11 0.02 0.22l0.06 0.45q0.06 0.44 0.15 0.87l0.1 0.43c0.03 0.15 0.09 0.29 0.08 0.44q0.02 0.46 0.08 0.9 0.05 0.45 0.13 0.9c0.02 0.15 0.07 0.29 0.08 0.44l0.01 0.47q0.02 0.92 0.17 1.84-0.04 0.95 0.01 1.9l0.04 0.48 0.01 0.12c0 0.03 0.01 0.05 0.01 0.27v1.03 4.11 8.23 16.46 32.92 131.67 526.67h82.55v-526.67-131.67-32.92-16.46-8.23-4.11-1.03c0-0.2 0-0.29-0.01-0.39l-0.01-0.32-0.05-1.27q-0.07-2.53-0.11-5.06-0.23-2.51-0.4-5.02l-0.08-1.26c-0.03-0.42-0.11-0.83-0.16-1.25l-0.33-2.48-0.3-2.49c-0.03-0.42-0.13-0.83-0.2-1.24l-0.23-1.23-0.44-2.46-0.21-1.23q-0.05-0.31-0.11-0.62l-0.14-0.61q-0.6-2.42-1.13-4.86l-0.13-0.61q-0.08-0.3-0.17-0.6l-0.36-1.2-0.68-2.4-0.33-1.2q-0.15-0.61-0.36-1.2l-0.82-2.35c-0.54-1.57-0.99-3.18-1.67-4.7l-0.92-2.33-0.44-1.16c-0.16-0.39-0.29-0.79-0.48-1.16q-1.06-2.26-2.06-4.55c-0.31-0.77-0.73-1.5-1.11-2.24l-1.14-2.22-0.56-1.12c-0.19-0.38-0.36-0.76-0.59-1.11l-1.26-2.16c-0.85-1.45-1.61-2.93-2.57-4.31l-1.36-2.11-0.66-1.06-0.34-0.53q-0.17-0.26-0.36-0.51-1.48-2.03-2.91-4.1c-4.03-5.36-8.44-10.43-13.19-15.18q-1.84-1.72-3.64-3.48l-3.8-3.29-0.94-0.84c-0.32-0.28-0.67-0.51-0.99-0.78l-1.99-1.54-1.96-1.57-2.06-1.45-2.04-1.46-1.02-0.74-1.06-0.67q-2.12-1.33-4.22-2.72-2.19-1.21-4.35-2.48l-1.08-0.64-1.12-0.55-2.23-1.14-2.22-1.15-2.28-1.01-2.28-1.04q-0.56-0.27-1.13-0.52l-1.17-0.45q-2.33-0.89-4.64-1.84-2.38-0.76-4.73-1.59l-1.18-0.41-1.2-0.32-2.41-0.68-2.39-0.7-2.44-0.54-2.43-0.57-1.21-0.3c-0.41-0.09-0.82-0.14-1.23-0.22q-2.47-0.41-4.93-0.88-9.92-1.43-20.08-1.56-10.16 0.13-20.08 1.56-2.46 0.47-4.93 0.88c-0.41 0.08-0.82 0.13-1.23 0.22l-1.21 0.3-2.43 0.57-2.44 0.54-2.4 0.7-2.4 0.68-1.2 0.32-1.18 0.41q-2.36 0.83-4.73 1.59-2.31 0.95-4.64 1.84l-1.17 0.45q-0.57 0.25-1.13 0.52l-2.28 1.04-2.28 1.01-2.22 1.15-2.23 1.14-1.12 0.55-1.08 0.64q-2.16 1.27-4.36 2.48-2.09 1.39-4.21 2.72l-1.07 0.67-1.01 0.74-2.04 1.46-2.06 1.45-1.96 1.57-1.99 1.54c-0.33 0.27-0.67 0.5-0.99 0.78l-0.94 0.84-3.8 3.29q-1.8 1.76-3.64 3.48c-4.75 4.75-9.16 9.82-13.19 15.18q-1.43 2.07-2.91 4.1-0.19 0.25-0.37 0.51l-0.33 0.53-0.67 1.06-1.35 2.11c-0.96 1.38-1.73 2.86-2.57 4.31l-1.26 2.16c-0.23 0.35-0.4 0.73-0.59 1.11l-0.56 1.12-1.14 2.22c-0.38 0.74-0.8 1.47-1.11 2.24q-1 2.29-2.07 4.55c-0.19 0.37-0.31 0.77-0.47 1.16l-0.44 1.16-0.92 2.33c-0.68 1.52-1.13 3.13-1.67 4.7l-0.82 2.35q-0.21 0.59-0.36 1.2l-0.33 1.2-0.68 2.4-0.36 1.2q-0.09 0.3-0.17 0.6l-0.13 0.61q-0.53 2.44-1.13 4.86l-0.15 0.61q-0.05 0.31-0.1 0.62l-0.21 1.23-0.44 2.46-0.23 1.23c-0.07 0.41-0.17 0.82-0.2 1.24l-0.3 2.49-0.33 2.48c-0.05 0.42-0.13 0.83-0.16 1.25l-0.08 1.26q-0.17 2.51-0.4 5.02-0.04 2.53-0.12 5.06l-0.04 1.27-0.01 0.32c-0.01 0.1-0.01 0.19-0.01 0.39v1.03 4.11 8.23 16.46 32.92 131.67 526.67z"/>
					</g>
				</g>
			</g>
		</g>
	</g>
</svg>